<svg width="595" height="94" viewBox="0 0 595 94" fill="none" xmlns="http://www.w3.org/2000/svg">
<path d="M595 85.5968C595 85.5968 513.738 44.002 297.5 79.9679C81.2618 115.934 0.000244141 67.4163 0.000244141 67.4163V8.46758L595 8.46758V85.5968Z" fill="#9DBD56"/>
<path d="M595 78.1894C595 78.1894 513.738 36.5946 297.5 72.5605C81.2618 108.526 0.000244141 60.0089 0.000244141 60.0089V1.06017L595 1.06017V78.1894Z" fill="#007236"/>
<path d="M595 80.333C595 80.333 513.738 38.7381 297.5 74.704C81.2618 110.67 0.000244141 62.1524 0.000244141 62.1524V3.20373L595 3.20373V80.333Z" fill="white"/>
<path d="M595 76.1292C595 76.1292 513.738 34.5344 297.5 70.5003C81.2618 106.466 0.000244141 57.9487 0.000244141 57.9487V-1.00001L595 -1.00001V76.1292Z" fill="#E7EFD5"/>
<g filter="url(#filter0_d)">
<path d="M404.972 36.566C404.612 36.374 404.384 36.176 404.288 35.972C404.192 35.768 404.144 35.594 404.144 35.45C404.144 35.126 404.258 34.694 404.486 34.154C404.726 33.602 405.044 32.972 405.44 32.264C405.836 31.556 406.286 30.818 406.79 30.05C406.418 30.026 406.064 30.008 405.728 29.996C405.392 29.984 404.96 29.978 404.432 29.978H404.144C404.312 29.546 404.576 29.246 404.936 29.078C405.308 28.898 405.74 28.808 406.232 28.808C406.436 28.808 406.646 28.82 406.862 28.844C407.09 28.868 407.324 28.892 407.564 28.916C408.464 27.62 409.34 26.438 410.192 25.37C411.044 24.29 411.776 23.456 412.388 22.868C412.964 22.292 413.384 22.004 413.648 22.004C413.816 22.004 414.002 22.07 414.206 22.202C414.422 22.334 414.644 22.502 414.872 22.706C414.752 22.802 414.596 23.048 414.404 23.444C414.224 23.84 414.026 24.344 413.81 24.956C413.606 25.556 413.396 26.216 413.18 26.936C412.976 27.656 412.79 28.388 412.622 29.132C412.454 29.876 412.316 30.59 412.208 31.274C412.112 31.946 412.064 32.54 412.064 33.056C412.064 34.004 412.274 34.478 412.694 34.478C412.97 34.478 413.312 34.268 413.72 33.848C414.128 33.428 414.584 32.744 415.088 31.796L415.412 32.138C415.04 33.122 414.554 33.932 413.954 34.568C413.366 35.204 412.736 35.522 412.064 35.522C411.488 35.522 411.08 35.276 410.84 34.784C410.6 34.28 410.48 33.596 410.48 32.732C410.48 32.456 410.498 32.144 410.534 31.796C410.57 31.448 410.63 31.016 410.714 30.5C410.186 30.416 409.718 30.35 409.31 30.302C408.902 30.254 408.512 30.206 408.14 30.158C407.564 31.178 407.006 32.234 406.466 33.326C405.926 34.418 405.428 35.498 404.972 36.566ZM410.894 29.618C411.05 28.91 411.23 28.196 411.434 27.476C411.65 26.744 411.872 26.048 412.1 25.388C412.34 24.716 412.574 24.116 412.802 23.588C412.25 24.02 411.614 24.734 410.894 25.73C410.186 26.714 409.46 27.848 408.716 29.132C409.076 29.204 409.436 29.282 409.796 29.366C410.156 29.45 410.522 29.534 410.894 29.618ZM413.577 40.04C413.433 40.04 413.283 39.986 413.127 39.878C412.959 39.77 412.869 39.674 412.857 39.59C413.157 38.714 413.415 37.952 413.631 37.304C413.835 36.668 414.009 36.062 414.153 35.486C414.297 34.922 414.429 34.334 414.549 33.722C414.657 33.098 414.765 32.39 414.873 31.598C414.993 30.794 415.125 29.828 415.269 28.7C415.293 28.556 415.323 28.454 415.359 28.394C415.395 28.322 415.509 28.286 415.701 28.286C416.073 28.286 416.343 28.388 416.511 28.592C416.679 28.784 416.763 29 416.763 29.24C416.763 29.528 416.679 30.092 416.511 30.932C416.739 30.584 416.997 30.254 417.285 29.942C417.585 29.63 417.915 29.378 418.275 29.186C418.635 28.982 419.025 28.88 419.445 28.88C420.033 28.88 420.519 29.078 420.903 29.474C421.287 29.87 421.479 30.392 421.479 31.04C421.479 31.508 421.371 32.006 421.155 32.534C420.951 33.05 420.657 33.542 420.273 34.01C419.889 34.466 419.427 34.838 418.887 35.126C418.347 35.426 417.753 35.576 417.105 35.576C416.721 35.576 416.415 35.528 416.187 35.432C415.959 35.336 415.845 35.228 415.845 35.108C415.845 35.024 415.887 34.976 415.971 34.964C416.067 34.94 416.169 34.928 416.277 34.928C416.841 34.916 417.351 34.796 417.807 34.568C418.275 34.34 418.677 34.046 419.013 33.686C419.349 33.314 419.607 32.918 419.787 32.498C419.967 32.078 420.057 31.664 420.057 31.256C420.057 30.896 419.973 30.584 419.805 30.32C419.649 30.056 419.397 29.924 419.049 29.924C418.749 29.924 418.443 30.02 418.131 30.212C417.831 30.404 417.549 30.65 417.285 30.95C417.021 31.238 416.787 31.544 416.583 31.868C416.379 32.18 416.223 32.456 416.115 32.696C415.887 33.488 415.677 34.274 415.485 35.054C415.305 35.846 415.131 36.578 414.963 37.25C414.795 37.922 414.627 38.492 414.459 38.96C414.279 39.428 414.087 39.746 413.883 39.914C413.787 39.998 413.685 40.04 413.577 40.04ZM425.351 35.468C424.907 35.468 424.547 35.348 424.271 35.108C423.995 34.88 423.857 34.568 423.857 34.172C423.857 33.836 423.941 33.476 424.109 33.092C424.277 32.708 424.445 32.33 424.613 31.958C424.793 31.586 424.883 31.256 424.883 30.968C424.883 30.692 424.793 30.464 424.613 30.284C424.433 30.092 424.223 29.936 423.983 29.816C423.719 30.476 423.419 31.118 423.083 31.742C422.759 32.354 422.495 32.834 422.291 33.182L422.021 32.66C422.189 32.348 422.411 31.904 422.687 31.328C422.963 30.752 423.227 30.11 423.479 29.402C423.359 29.282 423.299 29.12 423.299 28.916C423.299 28.604 423.395 28.31 423.587 28.034C423.779 27.758 423.965 27.62 424.145 27.62C424.289 27.62 424.391 27.704 424.451 27.872C424.523 28.028 424.559 28.136 424.559 28.196C424.559 28.256 424.529 28.364 424.469 28.52C424.421 28.676 424.385 28.79 424.361 28.862C424.373 28.994 424.475 29.126 424.667 29.258C424.871 29.378 425.099 29.522 425.351 29.69C425.603 29.858 425.825 30.068 426.017 30.32C426.209 30.572 426.305 30.89 426.305 31.274C426.305 31.622 426.227 31.976 426.071 32.336C425.915 32.696 425.759 33.032 425.603 33.344C425.447 33.656 425.369 33.926 425.369 34.154C425.369 34.322 425.411 34.436 425.495 34.496C425.591 34.544 425.699 34.568 425.819 34.568C426.107 34.568 426.407 34.484 426.719 34.316C427.031 34.136 427.337 33.908 427.637 33.632C427.937 33.356 428.201 33.068 428.429 32.768C428.657 32.456 428.831 32.174 428.951 31.922L429.383 32.246C429.155 32.762 428.825 33.272 428.393 33.776C427.961 34.268 427.481 34.676 426.953 35C426.425 35.312 425.891 35.468 425.351 35.468ZM430.648 35.792C429.88 35.792 429.286 35.582 428.866 35.162C428.458 34.754 428.254 34.238 428.254 33.614C428.254 33.086 428.386 32.528 428.65 31.94C428.926 31.34 429.292 30.782 429.748 30.266C430.204 29.738 430.708 29.312 431.26 28.988C431.812 28.664 432.364 28.502 432.916 28.502C433.228 28.502 433.522 28.586 433.798 28.754C434.086 28.91 434.23 29.228 434.23 29.708C434.23 30.164 434.098 30.59 433.834 30.986C433.57 31.382 433.216 31.736 432.772 32.048C432.328 32.36 431.836 32.618 431.296 32.822C430.768 33.014 430.234 33.14 429.694 33.2C429.682 33.248 429.67 33.302 429.658 33.362C429.658 33.41 429.658 33.494 429.658 33.614C429.658 33.674 429.664 33.782 429.676 33.938C429.7 34.082 429.754 34.238 429.838 34.406C429.922 34.574 430.06 34.718 430.252 34.838C430.444 34.958 430.708 35.018 431.044 35.018C431.548 35.018 432.052 34.88 432.556 34.604C433.072 34.316 433.552 33.938 433.996 33.47C434.452 33.002 434.83 32.48 435.13 31.904L435.49 32.192C435.166 32.912 434.746 33.542 434.23 34.082C433.726 34.622 433.162 35.042 432.538 35.342C431.926 35.642 431.296 35.792 430.648 35.792ZM429.892 32.534C430.204 32.498 430.552 32.39 430.936 32.21C431.32 32.03 431.686 31.802 432.034 31.526C432.394 31.25 432.688 30.95 432.916 30.626C433.144 30.29 433.258 29.954 433.258 29.618C433.258 29.486 433.234 29.396 433.186 29.348C433.138 29.3 433.06 29.276 432.952 29.276C432.676 29.276 432.388 29.378 432.088 29.582C431.788 29.774 431.494 30.032 431.206 30.356C430.918 30.668 430.66 31.016 430.432 31.4C430.204 31.784 430.024 32.162 429.892 32.534ZM440.76 35.36C440.292 35.36 439.932 35.24 439.68 35C439.44 34.772 439.32 34.478 439.32 34.118C439.32 33.878 439.362 33.626 439.446 33.362C439.53 33.086 439.614 32.81 439.698 32.534C439.782 32.258 439.824 31.994 439.824 31.742C439.824 31.478 439.758 31.298 439.626 31.202C439.506 31.094 439.362 31.04 439.194 31.04C438.834 31.04 438.462 31.19 438.078 31.49C437.706 31.778 437.34 32.144 436.98 32.588C436.632 33.032 436.302 33.494 435.99 33.974C435.678 34.454 435.408 34.886 435.18 35.27C434.952 35.27 434.736 35.228 434.532 35.144C434.328 35.072 434.154 34.94 434.01 34.748C434.022 34.688 434.094 34.508 434.226 34.208C434.346 33.896 434.484 33.53 434.64 33.11C434.796 32.678 434.934 32.228 435.054 31.76C435.174 31.292 435.234 30.866 435.234 30.482C435.318 30.386 435.444 30.29 435.612 30.194C435.792 30.098 435.978 30.05 436.17 30.05C436.59 30.05 436.8 30.23 436.8 30.59C436.8 30.914 436.698 31.448 436.494 32.192C436.806 31.772 437.148 31.376 437.52 31.004C437.892 30.632 438.276 30.332 438.672 30.104C439.08 29.864 439.488 29.744 439.896 29.744C440.412 29.744 440.79 29.918 441.03 30.266C441.282 30.614 441.408 30.998 441.408 31.418C441.408 31.778 441.348 32.114 441.228 32.426C441.108 32.738 440.988 33.032 440.868 33.308C440.76 33.584 440.706 33.854 440.706 34.118C440.706 34.31 440.748 34.448 440.832 34.532C440.928 34.604 441.03 34.64 441.138 34.64C441.426 34.64 441.726 34.502 442.038 34.226C442.35 33.95 442.644 33.602 442.92 33.182C443.208 32.75 443.46 32.318 443.676 31.886L443.982 32.138C443.73 32.726 443.442 33.266 443.118 33.758C442.806 34.238 442.452 34.628 442.056 34.928C441.672 35.216 441.24 35.36 440.76 35.36ZM444.444 35.54C444.216 35.54 443.982 35.48 443.742 35.36C443.514 35.252 443.322 35.078 443.166 34.838C442.998 34.598 442.914 34.292 442.914 33.92C442.914 33.524 443.01 33.08 443.202 32.588C443.394 32.096 443.652 31.604 443.976 31.112C444.312 30.62 444.696 30.17 445.128 29.762C445.572 29.354 446.04 29.024 446.532 28.772C447.024 28.52 447.522 28.394 448.026 28.394C448.302 28.394 448.518 28.442 448.674 28.538C448.83 28.622 448.908 28.766 448.908 28.97C448.908 29.03 448.896 29.102 448.872 29.186C448.848 29.258 448.788 29.324 448.692 29.384C448.644 29.312 448.56 29.264 448.44 29.24C448.32 29.204 448.194 29.186 448.062 29.186C447.666 29.186 447.288 29.3 446.928 29.528C446.568 29.744 446.238 30.026 445.938 30.374C445.638 30.722 445.374 31.1 445.146 31.508C444.93 31.916 444.762 32.312 444.642 32.696C444.522 33.068 444.462 33.392 444.462 33.668C444.462 34.172 444.654 34.424 445.038 34.424C445.362 34.424 445.746 34.238 446.19 33.866C446.646 33.482 447.108 32.936 447.576 32.228C448.056 31.508 448.488 30.65 448.872 29.654C449.136 28.97 449.412 28.274 449.7 27.566C449.988 26.846 450.276 26.156 450.564 25.496C450.852 24.836 451.134 24.248 451.41 23.732C451.698 23.216 451.968 22.808 452.22 22.508C452.484 22.196 452.724 22.04 452.94 22.04C453.072 22.04 453.186 22.094 453.282 22.202C453.39 22.298 453.444 22.424 453.444 22.58C453.444 22.784 453.342 23.114 453.138 23.57C452.946 24.014 452.694 24.548 452.382 25.172C452.082 25.796 451.752 26.474 451.392 27.206C451.044 27.926 450.714 28.67 450.402 29.438C450.102 30.194 449.85 30.944 449.646 31.688C449.454 32.42 449.358 33.11 449.358 33.758C449.358 34.046 449.382 34.244 449.43 34.352C449.49 34.448 449.586 34.496 449.718 34.496C450.102 34.496 450.558 34.268 451.086 33.812C451.626 33.344 452.1 32.684 452.508 31.832L452.85 32.12C452.586 32.78 452.25 33.362 451.842 33.866C451.434 34.37 450.996 34.76 450.528 35.036C450.06 35.324 449.598 35.468 449.142 35.468C448.65 35.468 448.308 35.312 448.116 35C447.924 34.688 447.828 34.322 447.828 33.902C447.828 33.71 447.84 33.518 447.864 33.326C447.9 33.122 447.936 32.924 447.972 32.732C447.408 33.548 446.808 34.22 446.172 34.748C445.548 35.276 444.972 35.54 444.444 35.54ZM454.132 35.792C453.364 35.792 452.77 35.582 452.35 35.162C451.942 34.754 451.738 34.238 451.738 33.614C451.738 33.086 451.87 32.528 452.134 31.94C452.41 31.34 452.776 30.782 453.232 30.266C453.688 29.738 454.192 29.312 454.744 28.988C455.296 28.664 455.848 28.502 456.4 28.502C456.712 28.502 457.006 28.586 457.282 28.754C457.57 28.91 457.714 29.228 457.714 29.708C457.714 30.164 457.582 30.59 457.318 30.986C457.054 31.382 456.7 31.736 456.256 32.048C455.812 32.36 455.32 32.618 454.78 32.822C454.252 33.014 453.718 33.14 453.178 33.2C453.166 33.248 453.154 33.302 453.142 33.362C453.142 33.41 453.142 33.494 453.142 33.614C453.142 33.674 453.148 33.782 453.16 33.938C453.184 34.082 453.238 34.238 453.322 34.406C453.406 34.574 453.544 34.718 453.736 34.838C453.928 34.958 454.192 35.018 454.528 35.018C455.032 35.018 455.536 34.88 456.04 34.604C456.556 34.316 457.036 33.938 457.48 33.47C457.936 33.002 458.314 32.48 458.614 31.904L458.974 32.192C458.65 32.912 458.23 33.542 457.714 34.082C457.21 34.622 456.646 35.042 456.022 35.342C455.41 35.642 454.78 35.792 454.132 35.792ZM453.376 32.534C453.688 32.498 454.036 32.39 454.42 32.21C454.804 32.03 455.17 31.802 455.518 31.526C455.878 31.25 456.172 30.95 456.4 30.626C456.628 30.29 456.742 29.954 456.742 29.618C456.742 29.486 456.718 29.396 456.67 29.348C456.622 29.3 456.544 29.276 456.436 29.276C456.16 29.276 455.872 29.378 455.572 29.582C455.272 29.774 454.978 30.032 454.69 30.356C454.402 30.668 454.144 31.016 453.916 31.4C453.688 31.784 453.508 32.162 453.376 32.534ZM461.509 35.468C461.065 35.468 460.705 35.348 460.429 35.108C460.153 34.88 460.015 34.568 460.015 34.172C460.015 33.836 460.099 33.476 460.267 33.092C460.435 32.708 460.603 32.33 460.771 31.958C460.951 31.586 461.041 31.256 461.041 30.968C461.041 30.692 460.951 30.464 460.771 30.284C460.591 30.092 460.381 29.936 460.141 29.816C459.877 30.476 459.577 31.118 459.241 31.742C458.917 32.354 458.653 32.834 458.449 33.182L458.179 32.66C458.347 32.348 458.569 31.904 458.845 31.328C459.121 30.752 459.385 30.11 459.637 29.402C459.517 29.282 459.457 29.12 459.457 28.916C459.457 28.604 459.553 28.31 459.745 28.034C459.937 27.758 460.123 27.62 460.303 27.62C460.447 27.62 460.549 27.704 460.609 27.872C460.681 28.028 460.717 28.136 460.717 28.196C460.717 28.256 460.687 28.364 460.627 28.52C460.579 28.676 460.543 28.79 460.519 28.862C460.531 28.994 460.633 29.126 460.825 29.258C461.029 29.378 461.257 29.522 461.509 29.69C461.761 29.858 461.983 30.068 462.175 30.32C462.367 30.572 462.463 30.89 462.463 31.274C462.463 31.622 462.385 31.976 462.229 32.336C462.073 32.696 461.917 33.032 461.761 33.344C461.605 33.656 461.527 33.926 461.527 34.154C461.527 34.322 461.569 34.436 461.653 34.496C461.749 34.544 461.857 34.568 461.977 34.568C462.265 34.568 462.565 34.484 462.877 34.316C463.189 34.136 463.495 33.908 463.795 33.632C464.095 33.356 464.359 33.068 464.587 32.768C464.815 32.456 464.989 32.174 465.109 31.922L465.541 32.246C465.313 32.762 464.983 33.272 464.551 33.776C464.119 34.268 463.639 34.676 463.111 35C462.583 35.312 462.049 35.468 461.509 35.468ZM470.222 35.684C469.958 35.684 469.766 35.48 469.646 35.072C469.538 34.664 469.484 34.19 469.484 33.65C469.484 33.098 469.574 32.432 469.754 31.652C469.946 30.872 470.198 30.05 470.51 29.186C470.834 28.322 471.188 27.476 471.572 26.648C471.968 25.82 472.37 25.07 472.778 24.398C473.198 23.714 473.594 23.168 473.966 22.76C474.35 22.352 474.686 22.148 474.974 22.148C475.226 22.148 475.418 22.286 475.55 22.562C475.682 22.838 475.748 23.126 475.748 23.426C475.748 23.75 475.67 24.152 475.514 24.632C475.37 25.1 475.166 25.604 474.902 26.144C474.638 26.684 474.326 27.218 473.966 27.746C473.618 28.262 473.234 28.736 472.814 29.168C472.406 29.6 471.98 29.948 471.536 30.212C471.308 30.836 471.146 31.394 471.05 31.886C470.966 32.366 470.924 32.828 470.924 33.272C470.924 33.332 470.924 33.398 470.924 33.47C470.936 33.53 470.942 33.59 470.942 33.65C470.99 33.578 471.068 33.392 471.176 33.092C471.284 32.792 471.428 32.444 471.608 32.048C471.8 31.64 472.034 31.244 472.31 30.86C472.586 30.464 472.91 30.14 473.282 29.888C473.654 29.624 474.08 29.492 474.56 29.492C474.968 29.492 475.286 29.588 475.514 29.78C475.742 29.96 475.904 30.188 476 30.464C476.096 30.728 476.144 30.998 476.144 31.274C476.144 31.658 476.078 32.018 475.946 32.354C475.826 32.69 475.7 33.008 475.568 33.308C475.448 33.596 475.388 33.872 475.388 34.136C475.388 34.352 475.436 34.502 475.532 34.586C475.628 34.67 475.742 34.712 475.874 34.712C476.138 34.712 476.444 34.58 476.792 34.316C477.152 34.052 477.506 33.704 477.854 33.272C478.214 32.828 478.52 32.342 478.772 31.814L479.06 32.12C478.784 32.72 478.46 33.272 478.088 33.776C477.716 34.28 477.308 34.682 476.864 34.982C476.42 35.282 475.94 35.432 475.424 35.432C474.968 35.432 474.62 35.312 474.38 35.072C474.14 34.832 474.02 34.532 474.02 34.172C474.02 33.92 474.062 33.644 474.146 33.344C474.242 33.032 474.332 32.72 474.416 32.408C474.5 32.096 474.542 31.814 474.542 31.562C474.542 31.274 474.476 31.076 474.344 30.968C474.224 30.86 474.074 30.806 473.894 30.806C473.594 30.806 473.324 30.926 473.084 31.166C472.844 31.394 472.628 31.694 472.436 32.066C472.244 32.438 472.064 32.834 471.896 33.254C471.728 33.662 471.56 34.052 471.392 34.424C471.224 34.796 471.044 35.096 470.852 35.324C470.672 35.564 470.462 35.684 470.222 35.684ZM471.914 29.06C472.298 28.712 472.664 28.292 473.012 27.8C473.372 27.296 473.69 26.786 473.966 26.27C474.242 25.754 474.458 25.286 474.614 24.866C474.782 24.434 474.872 24.11 474.884 23.894V23.84C474.812 23.84 474.656 23.99 474.416 24.29C474.188 24.578 473.918 24.974 473.606 25.478C473.306 25.97 473 26.528 472.688 27.152C472.388 27.776 472.13 28.412 471.914 29.06ZM479.296 35.846C478.9 35.846 478.558 35.714 478.27 35.45C477.97 35.186 477.82 34.79 477.82 34.262C477.82 33.842 477.916 33.386 478.108 32.894C478.3 32.402 478.564 31.916 478.9 31.436C479.236 30.956 479.62 30.524 480.052 30.14C480.484 29.744 480.946 29.426 481.438 29.186C481.93 28.946 482.422 28.826 482.914 28.826C483.43 28.826 483.868 28.958 484.228 29.222C484.588 29.486 484.768 29.834 484.768 30.266C484.768 30.59 484.654 30.824 484.426 30.968C484.198 31.112 483.928 31.154 483.616 31.094C483.64 30.986 483.658 30.878 483.67 30.77C483.694 30.662 483.706 30.548 483.706 30.428C483.706 30.188 483.658 29.972 483.562 29.78C483.466 29.588 483.262 29.492 482.95 29.492C482.614 29.492 482.272 29.606 481.924 29.834C481.576 30.062 481.24 30.362 480.916 30.734C480.604 31.094 480.322 31.496 480.07 31.94C479.818 32.372 479.62 32.798 479.476 33.218C479.332 33.638 479.26 34.016 479.26 34.352C479.26 34.736 479.398 34.928 479.674 34.928C479.95 34.928 480.256 34.796 480.592 34.532C480.928 34.256 481.264 33.914 481.6 33.506C481.948 33.098 482.278 32.684 482.59 32.264C482.902 31.832 483.172 31.466 483.4 31.166C483.436 31.106 483.484 31.076 483.544 31.076C483.592 31.088 483.682 31.118 483.814 31.166C483.958 31.202 484.09 31.262 484.21 31.346C484.33 31.43 484.39 31.538 484.39 31.67C484.39 31.826 484.306 32.042 484.138 32.318C483.97 32.582 483.796 32.87 483.616 33.182C483.448 33.494 483.364 33.782 483.364 34.046C483.364 34.202 483.406 34.352 483.49 34.496C483.574 34.628 483.712 34.694 483.904 34.694C484.192 34.694 484.594 34.484 485.11 34.064C485.638 33.632 486.172 32.906 486.712 31.886L487.054 32.228C486.61 33.212 486.058 34.01 485.398 34.622C484.738 35.234 484.072 35.54 483.4 35.54C482.908 35.54 482.542 35.384 482.302 35.072C482.062 34.76 481.93 34.424 481.906 34.064V33.974C481.426 34.55 480.982 35.006 480.574 35.342C480.178 35.678 479.752 35.846 479.296 35.846ZM488.32 36.008C487.696 36.008 487.18 35.81 486.772 35.414C486.376 35.03 486.178 34.436 486.178 33.632C486.178 33.044 486.292 32.468 486.52 31.904C486.748 31.34 487.054 30.836 487.438 30.392C487.822 29.936 488.248 29.576 488.716 29.312C489.196 29.048 489.682 28.916 490.174 28.916C490.678 28.916 491.038 29.042 491.254 29.294C491.482 29.546 491.596 29.84 491.596 30.176C491.596 30.512 491.512 30.842 491.344 31.166C491.188 31.478 490.972 31.634 490.696 31.634C490.468 31.634 490.282 31.52 490.138 31.292C490.258 31.208 490.384 31.052 490.516 30.824C490.648 30.596 490.714 30.302 490.714 29.942C490.714 29.738 490.6 29.636 490.372 29.636C490.072 29.636 489.754 29.774 489.418 30.05C489.094 30.314 488.788 30.662 488.5 31.094C488.224 31.514 487.996 31.964 487.816 32.444C487.648 32.912 487.564 33.344 487.564 33.74C487.564 34.076 487.648 34.388 487.816 34.676C487.996 34.952 488.338 35.09 488.842 35.09C489.298 35.09 489.772 34.958 490.264 34.694C490.756 34.43 491.218 34.064 491.65 33.596C492.082 33.116 492.43 32.546 492.694 31.886L493.054 32.21C492.766 32.942 492.364 33.596 491.848 34.172C491.344 34.736 490.78 35.18 490.156 35.504C489.544 35.84 488.932 36.008 488.32 36.008ZM495.844 27.422C495.616 27.422 495.406 27.368 495.214 27.26C495.034 27.14 494.944 26.96 494.944 26.72C494.944 26.432 495.1 26.186 495.412 25.982C495.724 25.778 496.048 25.676 496.384 25.676C496.6 25.676 496.78 25.724 496.924 25.82C497.08 25.916 497.158 26.09 497.158 26.342C497.158 26.594 497.02 26.84 496.744 27.08C496.468 27.308 496.168 27.422 495.844 27.422ZM493.72 35.54C493.192 35.54 492.796 35.384 492.532 35.072C492.268 34.76 492.136 34.382 492.136 33.938C492.136 33.662 492.184 33.314 492.28 32.894C492.376 32.474 492.508 32.036 492.676 31.58C492.856 31.112 493.06 30.674 493.288 30.266C493.516 29.858 493.762 29.528 494.026 29.276C494.29 29.012 494.554 28.88 494.818 28.88C494.962 28.88 495.088 28.928 495.196 29.024C495.304 29.108 495.358 29.234 495.358 29.402C495.358 29.558 495.262 29.792 495.07 30.104C494.89 30.416 494.674 30.776 494.422 31.184C494.182 31.592 493.966 32.018 493.774 32.462C493.594 32.894 493.504 33.308 493.504 33.704C493.504 34.088 493.57 34.346 493.702 34.478C493.846 34.598 494.05 34.658 494.314 34.658C494.722 34.658 495.166 34.454 495.646 34.046C496.126 33.638 496.624 32.924 497.14 31.904L497.41 32.192C496.99 33.248 496.456 34.07 495.808 34.658C495.16 35.246 494.464 35.54 493.72 35.54ZM498.763 35.792C497.995 35.792 497.401 35.582 496.981 35.162C496.573 34.754 496.369 34.238 496.369 33.614C496.369 33.086 496.501 32.528 496.765 31.94C497.041 31.34 497.407 30.782 497.863 30.266C498.319 29.738 498.823 29.312 499.375 28.988C499.927 28.664 500.479 28.502 501.031 28.502C501.343 28.502 501.637 28.586 501.913 28.754C502.201 28.91 502.345 29.228 502.345 29.708C502.345 30.164 502.213 30.59 501.949 30.986C501.685 31.382 501.331 31.736 500.887 32.048C500.443 32.36 499.951 32.618 499.411 32.822C498.883 33.014 498.349 33.14 497.809 33.2C497.797 33.248 497.785 33.302 497.773 33.362C497.773 33.41 497.773 33.494 497.773 33.614C497.773 33.674 497.779 33.782 497.791 33.938C497.815 34.082 497.869 34.238 497.953 34.406C498.037 34.574 498.175 34.718 498.367 34.838C498.559 34.958 498.823 35.018 499.159 35.018C499.663 35.018 500.167 34.88 500.671 34.604C501.187 34.316 501.667 33.938 502.111 33.47C502.567 33.002 502.945 32.48 503.245 31.904L503.605 32.192C503.281 32.912 502.861 33.542 502.345 34.082C501.841 34.622 501.277 35.042 500.653 35.342C500.041 35.642 499.411 35.792 498.763 35.792ZM498.007 32.534C498.319 32.498 498.667 32.39 499.051 32.21C499.435 32.03 499.801 31.802 500.149 31.526C500.509 31.25 500.803 30.95 501.031 30.626C501.259 30.29 501.373 29.954 501.373 29.618C501.373 29.486 501.349 29.396 501.301 29.348C501.253 29.3 501.175 29.276 501.067 29.276C500.791 29.276 500.503 29.378 500.203 29.582C499.903 29.774 499.609 30.032 499.321 30.356C499.033 30.668 498.775 31.016 498.547 31.4C498.319 31.784 498.139 32.162 498.007 32.534ZM508.876 35.36C508.408 35.36 508.048 35.24 507.796 35C507.556 34.772 507.436 34.478 507.436 34.118C507.436 33.878 507.478 33.626 507.562 33.362C507.646 33.086 507.73 32.81 507.814 32.534C507.898 32.258 507.94 31.994 507.94 31.742C507.94 31.478 507.874 31.298 507.742 31.202C507.622 31.094 507.478 31.04 507.31 31.04C506.95 31.04 506.578 31.19 506.194 31.49C505.822 31.778 505.456 32.144 505.096 32.588C504.748 33.032 504.418 33.494 504.106 33.974C503.794 34.454 503.524 34.886 503.296 35.27C503.068 35.27 502.852 35.228 502.648 35.144C502.444 35.072 502.27 34.94 502.126 34.748C502.138 34.688 502.21 34.508 502.342 34.208C502.462 33.896 502.6 33.53 502.756 33.11C502.912 32.678 503.05 32.228 503.17 31.76C503.29 31.292 503.35 30.866 503.35 30.482C503.434 30.386 503.56 30.29 503.728 30.194C503.908 30.098 504.094 30.05 504.286 30.05C504.706 30.05 504.916 30.23 504.916 30.59C504.916 30.914 504.814 31.448 504.61 32.192C504.922 31.772 505.264 31.376 505.636 31.004C506.008 30.632 506.392 30.332 506.788 30.104C507.196 29.864 507.604 29.744 508.012 29.744C508.528 29.744 508.906 29.918 509.146 30.266C509.398 30.614 509.524 30.998 509.524 31.418C509.524 31.778 509.464 32.114 509.344 32.426C509.224 32.738 509.104 33.032 508.984 33.308C508.876 33.584 508.822 33.854 508.822 34.118C508.822 34.31 508.864 34.448 508.948 34.532C509.044 34.604 509.146 34.64 509.254 34.64C509.542 34.64 509.842 34.502 510.154 34.226C510.466 33.95 510.76 33.602 511.036 33.182C511.324 32.75 511.576 32.318 511.792 31.886L512.098 32.138C511.846 32.726 511.558 33.266 511.234 33.758C510.922 34.238 510.568 34.628 510.172 34.928C509.788 35.216 509.356 35.36 508.876 35.36ZM512.559 35.54C512.331 35.54 512.097 35.48 511.857 35.36C511.629 35.252 511.437 35.078 511.281 34.838C511.113 34.598 511.029 34.292 511.029 33.92C511.029 33.524 511.125 33.08 511.317 32.588C511.509 32.096 511.767 31.604 512.091 31.112C512.427 30.62 512.811 30.17 513.243 29.762C513.687 29.354 514.155 29.024 514.647 28.772C515.139 28.52 515.637 28.394 516.141 28.394C516.417 28.394 516.633 28.442 516.789 28.538C516.945 28.622 517.023 28.766 517.023 28.97C517.023 29.03 517.011 29.102 516.987 29.186C516.963 29.258 516.903 29.324 516.807 29.384C516.759 29.312 516.675 29.264 516.555 29.24C516.435 29.204 516.309 29.186 516.177 29.186C515.781 29.186 515.403 29.3 515.043 29.528C514.683 29.744 514.353 30.026 514.053 30.374C513.753 30.722 513.489 31.1 513.261 31.508C513.045 31.916 512.877 32.312 512.757 32.696C512.637 33.068 512.577 33.392 512.577 33.668C512.577 34.172 512.769 34.424 513.153 34.424C513.477 34.424 513.861 34.238 514.305 33.866C514.761 33.482 515.223 32.936 515.691 32.228C516.171 31.508 516.603 30.65 516.987 29.654C517.251 28.97 517.527 28.274 517.815 27.566C518.103 26.846 518.391 26.156 518.679 25.496C518.967 24.836 519.249 24.248 519.525 23.732C519.813 23.216 520.083 22.808 520.335 22.508C520.599 22.196 520.839 22.04 521.055 22.04C521.187 22.04 521.301 22.094 521.397 22.202C521.505 22.298 521.559 22.424 521.559 22.58C521.559 22.784 521.457 23.114 521.253 23.57C521.061 24.014 520.809 24.548 520.497 25.172C520.197 25.796 519.867 26.474 519.507 27.206C519.159 27.926 518.829 28.67 518.517 29.438C518.217 30.194 517.965 30.944 517.761 31.688C517.569 32.42 517.473 33.11 517.473 33.758C517.473 34.046 517.497 34.244 517.545 34.352C517.605 34.448 517.701 34.496 517.833 34.496C518.217 34.496 518.673 34.268 519.201 33.812C519.741 33.344 520.215 32.684 520.623 31.832L520.965 32.12C520.701 32.78 520.365 33.362 519.957 33.866C519.549 34.37 519.111 34.76 518.643 35.036C518.175 35.324 517.713 35.468 517.257 35.468C516.765 35.468 516.423 35.312 516.231 35C516.039 34.688 515.943 34.322 515.943 33.902C515.943 33.71 515.955 33.518 515.979 33.326C516.015 33.122 516.051 32.924 516.087 32.732C515.523 33.548 514.923 34.22 514.287 34.748C513.663 35.276 513.087 35.54 512.559 35.54ZM521.347 35.576C520.807 35.576 520.435 35.396 520.231 35.036C520.039 34.688 519.943 34.304 519.943 33.884C519.943 33.5 520.003 33.11 520.123 32.714C520.243 32.306 520.405 31.928 520.609 31.58C520.825 31.232 521.059 30.956 521.311 30.752C521.575 30.536 521.839 30.428 522.103 30.428C522.187 30.428 522.283 30.446 522.391 30.482C522.511 30.506 522.595 30.548 522.643 30.608C522.451 30.848 522.253 31.16 522.049 31.544C521.857 31.916 521.695 32.306 521.563 32.714C521.443 33.122 521.383 33.494 521.383 33.83C521.383 34.07 521.425 34.268 521.509 34.424C521.605 34.58 521.767 34.658 521.995 34.658C522.223 34.658 522.493 34.532 522.805 34.28C523.129 34.016 523.435 33.716 523.723 33.38C523.339 33.032 523.063 32.654 522.895 32.246C522.727 31.826 522.643 31.322 522.643 30.734C522.643 30.482 522.703 30.194 522.823 29.87C522.955 29.546 523.159 29.264 523.435 29.024C523.723 28.784 524.107 28.664 524.587 28.664C525.103 28.664 525.463 28.808 525.667 29.096C525.883 29.384 525.991 29.726 525.991 30.122C525.991 30.566 525.871 31.064 525.631 31.616C525.403 32.168 525.127 32.69 524.803 33.182C524.947 33.254 525.115 33.29 525.307 33.29C525.487 33.29 525.703 33.248 525.955 33.164C526.207 33.08 526.453 32.942 526.693 32.75C526.933 32.546 527.125 32.276 527.269 31.94L527.593 32.174C527.329 32.786 526.975 33.236 526.531 33.524C526.099 33.8 525.673 33.938 525.253 33.938C525.097 33.938 524.941 33.926 524.785 33.902C524.629 33.866 524.485 33.824 524.353 33.776C523.945 34.256 523.477 34.676 522.949 35.036C522.421 35.396 521.887 35.576 521.347 35.576ZM524.191 32.804C524.479 32.384 524.725 31.934 524.929 31.454C525.133 30.974 525.235 30.53 525.235 30.122C525.235 29.594 525.067 29.33 524.731 29.33C524.503 29.33 524.269 29.492 524.029 29.816C523.789 30.14 523.669 30.548 523.669 31.04C523.669 31.292 523.711 31.598 523.795 31.958C523.891 32.318 524.023 32.6 524.191 32.804Z" fill="black"/>
</g>
<g clip-path="url(#clip0)">
<path d="M123.42 31.6909C123.42 30.2908 122.813 28.9837 121.226 28.9837C119.826 28.9837 119.079 30.1506 119.079 31.5041C119.079 38.132 132.989 34.7248 132.989 46.6277C132.989 54.3752 129.395 57.4568 120.76 57.4568C113.618 57.4568 109.697 55.0297 109.697 47.7011V46.814H118.753V48.3545C118.753 49.9882 119.453 51.2947 121.087 51.2947C122.814 51.2947 123.374 49.8016 123.374 48.3545C123.374 46.2073 122.58 45.7405 121.367 45.0407C120.107 44.3403 118.426 43.687 116.746 42.8465C111.705 40.3262 110.025 38.5057 110.025 33.5581C110.025 28.937 111.425 26.4167 113.572 24.8762C115.16 23.7562 117.54 22.8226 121.181 22.8226C130.609 22.8226 132.196 27.4904 132.196 33.0449H123.421V31.6909H123.42Z" fill="#003C88"/>
<path d="M133.688 23.4758H155.72V31.3175H149.372V56.8027H140.037V31.3175H133.688V23.4758H133.688Z" fill="#003C88"/>
<path d="M169.442 51.7151H163.188L162.254 56.803H152.638L160.527 23.476H172.243L180.085 56.803H170.469L169.442 51.7151ZM166.408 30.7573H166.315L164.168 44.4338H168.415L166.408 30.7573Z" fill="#009BDB"/>
<path d="M195.394 23.4758H204.729V56.8027H195.394V43.3603H190.913V56.8027H181.578V23.4758H190.913V35.5183H195.394V23.4758Z" fill="#009BDB"/>
<path d="M103.418 38.6513H102.02L98.0267 42.6272V56.8673H107.362V42.5773L103.418 38.6513Z" fill="#003C88"/>
<path d="M103.992 37.0307C103.992 37.0307 105.778 33.6634 105.94 32.9735C106.102 32.2837 106.589 28.8334 107.116 27.8599C107.644 26.8864 109.511 24.898 110.891 25.3042C110.891 25.3042 109.308 27.7379 108.903 29.4834C108.497 31.2283 104.317 37.0307 103.992 37.0307Z" fill="#B4C563"/>
<path d="M114.016 26.9268C114.016 26.9268 110.769 27.3732 109.47 29.6046C108.172 31.8371 106.347 34.7988 105.048 37.0307C105.048 37.0307 109.897 33.4367 111.236 31.1436C112.575 28.8515 112.595 27.9407 114.016 26.9268Z" fill="#B4C563"/>
<path d="M105.25 37.767C105.25 37.767 108.172 35.3671 110.891 32.6479C113.61 29.9294 116.844 30.1546 116.844 30.1546C116.844 30.1546 114.137 31.4309 112.92 32.4052C112.28 32.9163 110.594 34.6602 108.914 35.9032C107.4 37.0234 105.885 37.6739 105.25 37.767Z" fill="#B4C563"/>
<path d="M103.708 38.2084C103.708 38.2084 105.697 39.2228 107.239 41.0076C108.78 42.7935 109.105 44.4571 109.105 44.4571C109.105 44.4571 104.926 41.2519 103.708 38.2084Z" fill="#B4C563"/>
<path d="M102.735 37.396C102.735 37.396 102.609 38.2302 102.247 37.396C101.923 35.2042 100.219 33.0139 100.219 30.1732C100.219 27.3333 102.735 23.1934 102.735 23.1934C102.735 23.1934 105.251 27.333 105.251 30.1732C105.251 33.0139 103.546 35.2044 103.222 37.396C102.86 38.2302 102.735 37.396 102.735 37.396Z" fill="#B4C563"/>
<path d="M101.477 37.0307C101.477 37.0307 99.6912 33.6634 99.5285 32.9735C99.3663 32.2837 98.8796 28.8334 98.353 27.8599C97.825 26.8864 95.958 24.898 94.5778 25.3042C94.5778 25.3042 96.1611 27.7379 96.5663 29.4834C96.9717 31.2283 101.152 37.0307 101.477 37.0307Z" fill="#B4C563"/>
<path d="M91.4536 26.9268C91.4536 26.9268 94.6997 27.3732 95.9984 29.6046C97.2964 31.8371 99.1222 34.7988 100.421 37.0307C100.421 37.0307 95.572 33.4367 94.2332 31.1436C92.8944 28.8515 92.8729 27.9407 91.4536 26.9268Z" fill="#B4C563"/>
<path d="M100.218 37.767C100.218 37.767 97.2965 35.3671 94.5778 32.6479C91.8591 29.9294 89.2618 29.3611 89.2618 29.3611C89.2618 29.3611 91.3316 31.4311 92.5486 32.4054C93.1884 32.9166 94.8756 34.6605 96.5539 35.9035C98.0692 37.0234 99.5833 37.6739 100.218 37.767Z" fill="#B4C563"/>
<path d="M101.76 38.2084C101.76 38.2084 99.7715 39.2228 98.2301 41.0076C96.6885 42.7935 96.364 44.4571 96.364 44.4571C96.364 44.4571 100.543 41.2519 101.76 38.2084Z" fill="#B4C563"/>
<path d="M102.735 38.6542C102.735 38.6542 101.76 39.2629 101.76 42.0627C101.76 44.8628 102.531 45.8368 102.735 45.8368C102.938 45.8368 103.708 44.8628 103.708 42.0627C103.708 39.2632 102.735 38.6542 102.735 38.6542Z" fill="#B4C563"/>
<path fill-rule="evenodd" clip-rule="evenodd" d="M92.9454 24.9969C93.0338 25.0208 93.1206 25.0457 93.2067 25.0722C93.2222 25.0927 93.2316 25.1223 93.25 25.1315C93.7242 25.3391 93.7688 25.4469 93.5743 25.9368C93.5725 25.9452 93.5746 25.9536 93.5749 25.9607C93.5481 25.9877 93.5221 26.0134 93.4956 26.037C93.377 26.0583 93.24 26.0441 93.1482 26.1234C92.9008 26.3377 92.6496 26.2834 92.3954 26.1601C92.3093 26.1189 92.1729 26.0782 92.2023 25.9457C92.2261 25.8271 92.3605 25.8591 92.4463 25.8387C92.7748 25.7675 92.9034 25.6049 92.8412 25.2811C92.8157 25.1485 92.8475 25.069 92.9454 24.9969Z" fill="#DFD846"/>
<path fill-rule="evenodd" clip-rule="evenodd" d="M93.5749 25.9607C93.5746 25.9539 93.5725 25.9452 93.5743 25.9368C93.7685 25.4469 93.7239 25.339 93.25 25.1315C93.2317 25.1226 93.2222 25.0929 93.2067 25.0722C93.4442 25.0745 93.4466 24.8678 93.4927 24.7219C93.5211 24.6285 93.5387 24.5196 93.6334 24.4933C93.7229 24.4697 93.7767 24.5791 93.8331 24.6408C93.8816 24.6925 93.9365 24.7623 93.9391 24.8274C93.9546 25.2372 93.9939 25.6584 93.6216 25.9601C93.6043 25.9622 93.5904 25.9622 93.5749 25.9607Z" fill="#CCC658"/>
<path fill-rule="evenodd" clip-rule="evenodd" d="M92.9454 24.9969C92.8475 25.0688 92.816 25.1485 92.8412 25.2808C92.9034 25.6046 92.7748 25.7673 92.4463 25.8384C92.3605 25.8588 92.2262 25.8268 92.2023 25.9454C92.1732 26.0782 92.3094 26.1186 92.3954 26.1598C92.6497 26.2834 92.9008 26.3377 93.1482 26.1231C93.2403 26.0438 93.377 26.058 93.4957 26.0367C93.4382 26.1477 93.2532 26.1144 93.2356 26.2679C93.2083 26.2776 93.1852 26.2889 93.1572 26.2968C92.9669 26.3311 92.7746 26.3666 92.5836 26.4009C92.4579 26.333 92.3049 26.3262 92.1913 26.2309C92.1787 26.1916 92.1616 26.1551 92.1073 26.1711C92.0979 26.1081 92.0561 26.1126 92.0121 26.1273L92.0073 26.1317C91.9753 26.0341 91.957 25.9399 92.0687 25.8767C92.211 25.7906 92.3427 25.6817 92.5187 25.6762C92.6725 25.6707 92.693 25.5594 92.7003 25.4421C92.8192 25.3603 92.7205 25.2556 92.7276 25.1635C92.7347 25.0711 92.6206 24.9709 92.7468 24.8885C92.8137 24.925 92.8806 24.9593 92.9454 24.9969Z" fill="#CCC658"/>
<path fill-rule="evenodd" clip-rule="evenodd" d="M94.6106 27.6487C94.4382 27.6393 94.2605 27.6366 94.1653 27.4516C94.1813 27.4275 94.1949 27.406 94.2065 27.3834C94.2445 27.3383 94.2403 27.3078 94.1774 27.2932L94.1795 27.2929C94.1629 27.1376 94.1002 27.0132 93.9522 26.9434C93.8591 26.8967 93.9129 26.7655 93.821 26.7209C93.7998 26.6044 93.7932 26.4823 93.6415 26.449C93.6345 26.4325 93.6271 26.4181 93.6195 26.4036C93.6494 26.3716 93.6486 26.3359 93.6376 26.2995C93.661 26.2916 93.6827 26.2861 93.7056 26.2782C93.7638 26.3081 93.7888 26.3656 93.8137 26.4209C93.8231 26.4713 93.8305 26.528 93.8921 26.5503C94.0771 26.8116 94.2629 27.0696 94.4471 27.3317C94.5159 27.4288 94.6014 27.5199 94.6106 27.6487Z" fill="#96AA54"/>
<path fill-rule="evenodd" clip-rule="evenodd" d="M93.7056 26.2782C93.6827 26.286 93.6609 26.2916 93.6376 26.2994C93.6161 26.307 93.5969 26.3123 93.5746 26.3204C93.4836 26.148 93.3605 26.2042 93.2356 26.2682C93.2532 26.1147 93.4382 26.148 93.4956 26.037C93.5221 26.0134 93.5481 25.9877 93.5749 25.9607C93.5904 25.9622 93.6043 25.9622 93.6216 25.9601C93.6494 26.0648 93.6767 26.1716 93.7056 26.2782Z" fill="#A7A96F"/>
<path fill-rule="evenodd" clip-rule="evenodd" d="M92.7473 24.8893C92.6211 24.9714 92.7352 25.0719 92.7281 25.1643C92.7211 25.2564 92.8197 25.3611 92.7009 25.443C92.7061 25.2792 92.6801 25.1226 92.609 24.9746C92.5838 24.9273 92.5329 24.8667 92.5969 24.8263C92.6602 24.7838 92.7182 24.8169 92.7473 24.8893Z" fill="#919466"/>
<path fill-rule="evenodd" clip-rule="evenodd" d="M92.5838 26.4015C92.7748 26.3668 92.9672 26.3314 93.1574 26.2973C92.9866 26.4484 92.8053 26.5366 92.5838 26.4015Z" fill="#9FA073"/>
<path fill-rule="evenodd" clip-rule="evenodd" d="M92.069 25.8772C91.9569 25.9402 91.9756 26.0347 92.0076 26.1323C91.9147 26.1401 91.8008 26.1281 91.8173 26.0202C91.8339 25.9108 91.9546 25.873 92.069 25.8772Z" fill="#A1A27B"/>
<path fill-rule="evenodd" clip-rule="evenodd" d="M93.6415 26.4492C93.7929 26.4825 93.7998 26.6046 93.821 26.7211C93.7625 26.6308 93.7014 26.5379 93.6415 26.4492Z" fill="#9CA45D"/>
<path fill-rule="evenodd" clip-rule="evenodd" d="M93.8921 26.5502C93.8307 26.5279 93.8231 26.4713 93.8137 26.4209C93.8695 26.4461 93.8856 26.4959 93.8921 26.5502Z" fill="#9CA45D"/>
<path fill-rule="evenodd" clip-rule="evenodd" d="M93.5746 26.3204C93.597 26.3123 93.6161 26.307 93.6376 26.2994C93.6486 26.3362 93.6494 26.3716 93.6195 26.4036C93.6043 26.3753 93.5896 26.3475 93.5746 26.3204Z" fill="#9CA45D"/>
<path fill-rule="evenodd" clip-rule="evenodd" d="M92.1073 26.1716C92.1616 26.1554 92.1787 26.1918 92.1913 26.2315C92.1535 26.2244 92.1202 26.2123 92.1073 26.1716Z" fill="#A1A27B"/>
<path fill-rule="evenodd" clip-rule="evenodd" d="M92.0121 26.1278C92.0562 26.1131 92.0979 26.1087 92.1073 26.1716C92.0632 26.1806 92.0281 26.1764 92.0121 26.1278Z" fill="#A1A27B"/>
<path fill-rule="evenodd" clip-rule="evenodd" d="M112.465 24.9444C112.618 24.9407 112.685 24.9633 112.635 25.1609C112.553 25.4763 112.818 25.7835 113.182 25.852C113.258 25.8657 113.341 25.8643 113.413 25.9158C113.37 26.0197 113.315 26.0994 113.193 26.1068C113.014 26.1887 112.797 26.1918 112.652 26.3529C112.622 26.3482 112.588 26.3419 112.559 26.3367C112.504 26.133 112.311 26.2333 112.19 26.1716C112.215 26.126 112.24 26.0821 112.16 26.0682C112.063 26.0517 111.969 26.032 111.873 26.0131H111.872C111.88 25.9462 111.874 25.8667 111.821 25.8326C111.641 25.7124 111.677 25.5387 111.751 25.4023C111.829 25.2598 111.955 25.1252 112.163 25.1732C112.229 25.1874 112.272 25.1601 112.285 25.0903L112.281 25.0924C112.425 25.1441 112.451 25.0522 112.465 24.9444Z" fill="#DFD846"/>
<path fill-rule="evenodd" clip-rule="evenodd" d="M112.285 25.0906C112.272 25.1606 112.229 25.1877 112.163 25.1735C111.955 25.1255 111.829 25.2601 111.752 25.4026C111.677 25.539 111.641 25.7127 111.822 25.8329C111.875 25.8673 111.88 25.9468 111.872 26.0134C111.824 25.9898 111.78 25.967 111.733 25.9431L111.735 25.9436C111.73 25.8967 111.695 25.8835 111.658 25.8704C111.401 25.5088 111.355 25.1207 111.478 24.7009C111.528 24.5261 111.717 24.4734 111.78 24.3068C111.801 24.2483 111.87 24.3144 111.879 24.3802C111.9 24.5133 111.917 24.6482 111.944 24.7812C111.978 24.9725 112.058 25.1139 112.285 25.0906Z" fill="#CCC658"/>
<path fill-rule="evenodd" clip-rule="evenodd" d="M111.312 27.445C111.16 27.6258 110.944 27.6547 110.729 27.6904C111.019 27.201 111.33 26.7274 111.675 26.2787C111.703 26.318 111.729 26.3566 111.755 26.3973C111.533 26.692 111.41 27.0457 111.197 27.3459C111.088 27.4991 111.264 27.4196 111.312 27.445Z" fill="#96AA54"/>
<path fill-rule="evenodd" clip-rule="evenodd" d="M111.755 26.3973C111.729 26.3566 111.703 26.318 111.675 26.2787C111.662 26.1609 111.809 26.0704 111.733 25.9434C111.78 25.9672 111.824 25.9901 111.872 26.0137H111.873C111.954 26.1171 112.067 26.1569 112.19 26.1722C112.188 26.2021 112.184 26.2322 112.179 26.2629C111.987 26.142 111.847 26.189 111.755 26.3973Z" fill="#A7A96F"/>
<path fill-rule="evenodd" clip-rule="evenodd" d="M112.653 26.353C112.797 26.1918 113.014 26.1884 113.193 26.1068C113.105 26.2212 113.033 26.3642 112.849 26.3432C112.833 26.3571 112.814 26.3716 112.796 26.3865L112.8 26.3831C112.749 26.3737 112.7 26.3642 112.653 26.353Z" fill="#CCC658"/>
<path fill-rule="evenodd" clip-rule="evenodd" d="M112.653 26.353C112.7 26.3642 112.749 26.3737 112.8 26.3831C112.574 26.5233 112.393 26.4123 112.222 26.2769C112.334 26.2973 112.446 26.316 112.56 26.3369C112.588 26.3419 112.622 26.3485 112.653 26.353Z" fill="#9FA073"/>
<path fill-rule="evenodd" clip-rule="evenodd" d="M112.56 26.3369C112.446 26.3162 112.334 26.2976 112.222 26.2769L112.201 26.2732L112.179 26.2624C112.184 26.232 112.188 26.2018 112.19 26.1716C112.311 26.2336 112.504 26.1331 112.56 26.3369Z" fill="#CCC658"/>
<path fill-rule="evenodd" clip-rule="evenodd" d="M112.465 24.9444C112.451 25.0522 112.425 25.1441 112.281 25.0924C112.316 25.0097 112.386 24.9688 112.465 24.9444Z" fill="#CCC658"/>
<path fill-rule="evenodd" clip-rule="evenodd" d="M111.658 25.8704C111.695 25.8838 111.73 25.8969 111.734 25.9436C111.692 25.936 111.638 25.9415 111.658 25.8704Z" fill="#A7A96F"/>
<path fill-rule="evenodd" clip-rule="evenodd" d="M112.796 26.3866C112.814 26.3716 112.833 26.3572 112.849 26.3433C112.833 26.3572 112.814 26.3719 112.796 26.3866Z" fill="#9FA073"/>
<path fill-rule="evenodd" clip-rule="evenodd" d="M112.19 26.1719C112.067 26.1567 111.954 26.1168 111.873 26.0134C111.969 26.0323 112.063 26.052 112.159 26.0685C112.24 26.0824 112.215 26.1263 112.19 26.1719Z" fill="#CCC658"/>
<path d="M102.298 61.1533L104.021 72.0438H100.942L100.781 70.0866H99.7029L99.5221 72.0438H96.4075L97.9441 61.1533H102.298ZM100.702 68.1559C100.549 66.9229 100.396 65.3978 100.243 63.5823C99.9357 65.667 99.7433 67.1921 99.6646 68.1559H100.702Z" fill="#B4C563"/>
<path d="M107.912 61.1533V69.8643H109.744V72.0438H104.899V61.1533H107.912Z" fill="#B4C563"/>
<path d="M110.84 61.1533H115.942V63.3327H113.853V65.3986H115.713V67.4705H113.853V72.0441H110.84V61.1533Z" fill="#B4C563"/>
<path d="M123.923 67.5308C123.923 68.6248 123.895 69.3996 123.84 69.8544C123.785 70.3094 123.613 70.7258 123.325 71.1021C123.036 71.4789 122.646 71.7683 122.155 71.9698C121.664 72.1719 121.091 72.2729 120.437 72.2729C119.817 72.2729 119.261 72.1771 118.767 71.9863C118.273 71.7958 117.876 71.5106 117.575 71.1291C117.274 70.7481 117.096 70.333 117.039 69.8845C116.981 69.4366 116.952 68.6513 116.952 67.5306V65.6667C116.952 64.5731 116.98 63.7979 117.035 63.3427C117.09 62.8882 117.261 62.472 117.55 62.0955C117.839 61.7182 118.228 61.4293 118.72 61.2272C119.211 61.0257 119.784 60.9247 120.437 60.9247C121.058 60.9247 121.615 61.0197 122.108 61.2102C122.602 61.4012 122.999 61.687 123.3 62.0685C123.6 62.4497 123.779 62.8646 123.836 63.3125C123.894 63.7612 123.923 64.5463 123.923 65.667V67.5308ZM120.91 63.952C120.91 63.445 120.88 63.1212 120.82 62.9801C120.761 62.8386 120.638 62.7675 120.452 62.7675C120.294 62.7675 120.174 62.825 120.09 62.9394C120.007 63.054 119.965 63.3915 119.965 63.9517V69.0372C119.965 69.6694 119.992 70.0596 120.047 70.2076C120.102 70.3553 120.23 70.4295 120.43 70.4295C120.635 70.4295 120.766 70.3445 120.824 70.174C120.881 70.0039 120.909 69.5975 120.909 68.9562V63.952H120.91Z" fill="#B4C563"/>
<path d="M132.139 61.1533V72.0438H129.499L127.931 67.0929V72.0438H125.412V61.1533H127.931L129.62 66.0569V61.1533H132.139Z" fill="#B4C563"/>
<path d="M140.098 64.4495H137.3V63.6426C137.3 63.2663 137.264 63.026 137.193 62.9231C137.121 62.8195 137.002 62.7678 136.835 62.7678C136.654 62.7678 136.516 62.8381 136.423 62.9766C136.331 63.1162 136.284 63.3269 136.284 63.6098C136.284 63.973 136.336 64.2472 136.441 64.4308C136.541 64.6145 136.825 64.837 137.292 65.0968C138.633 65.8452 139.478 66.4587 139.826 66.9388C140.174 67.4185 140.348 68.1923 140.348 69.2592C140.348 70.0351 140.252 70.6069 140.059 70.9745C139.866 71.3424 139.492 71.651 138.939 71.9C138.386 72.1485 137.741 72.2731 137.007 72.2731C136.2 72.2731 135.512 72.1296 134.942 71.8428C134.372 71.5555 133.999 71.19 133.822 70.746C133.646 70.3017 133.557 69.672 133.557 68.8557V68.1425H136.355V69.4678C136.355 69.8759 136.395 70.138 136.474 70.255C136.552 70.3715 136.692 70.4298 136.892 70.4298C137.093 70.4298 137.242 70.3555 137.339 70.2078C137.437 70.0598 137.486 69.8404 137.486 69.5484C137.486 68.9074 137.393 68.4875 137.207 68.2902C137.016 68.0931 136.546 67.7638 135.798 67.3015C135.048 66.8355 134.553 66.497 134.309 66.286C134.066 66.0753 133.864 65.7835 133.704 65.412C133.545 65.0394 133.465 64.5639 133.465 63.9853C133.465 63.1511 133.578 62.5411 133.804 62.1559C134.031 61.7699 134.397 61.4684 134.903 61.2508C135.409 61.0333 136.02 60.9247 136.735 60.9247C137.517 60.9247 138.184 61.0433 138.735 61.281C139.286 61.5185 139.651 61.8187 139.83 62.1795C140.009 62.5405 140.098 63.1535 140.098 64.0189V64.4495H140.098Z" fill="#B4C563"/>
<path d="M148.543 67.5308C148.543 68.6248 148.516 69.3996 148.46 69.8544C148.406 70.3094 148.234 70.7258 147.945 71.1021C147.657 71.4789 147.267 71.7683 146.776 71.9698C146.284 72.1719 145.712 72.2729 145.058 72.2729C144.438 72.2729 143.881 72.1771 143.387 71.9863C142.893 71.7958 142.496 71.5106 142.196 71.1291C141.895 70.7481 141.716 70.333 141.659 69.8845C141.602 69.4366 141.573 68.6513 141.573 67.5306V65.6667C141.573 64.5731 141.6 63.7979 141.655 63.3427C141.71 62.8882 141.882 62.472 142.17 62.0955C142.459 61.7182 142.849 61.4293 143.341 61.2272C143.832 61.0257 144.405 60.9247 145.058 60.9247C145.678 60.9247 146.235 61.0197 146.729 61.2102C147.223 61.4012 147.62 61.687 147.92 62.0685C148.221 62.4497 148.4 62.8646 148.457 63.3125C148.514 63.7612 148.542 64.5463 148.542 65.667V67.5308H148.543ZM145.53 63.952C145.53 63.445 145.501 63.1212 145.441 62.9801C145.381 62.8386 145.259 62.7675 145.073 62.7675C144.915 62.7675 144.795 62.825 144.711 62.9394C144.628 63.0538 144.586 63.3915 144.586 63.9517V69.0372C144.586 69.6694 144.613 70.0596 144.668 70.2076C144.723 70.3553 144.85 70.4295 145.051 70.4295C145.256 70.4295 145.387 70.3445 145.445 70.174C145.502 70.0039 145.53 69.5975 145.53 68.9562V63.952H145.53Z" fill="#B4C563"/>
<path d="M159.909 61.1533V72.0438H156.897V67.4702H155.995V72.0438H152.983V61.1533H155.995V65.0483H156.897V61.1533H159.909Z" fill="#B4C563"/>
<path d="M161.486 61.1533H166.509V63.3327H164.498V65.3986H166.38V67.4705H164.498V69.8646H166.709V72.0441H161.486V61.1533Z" fill="#B4C563"/>
<path d="M167.941 61.1533H170.074C171.496 61.1533 172.458 61.2052 172.961 61.3083C173.464 61.4115 173.874 61.6746 174.193 62.0989C174.51 62.5227 174.668 63.1989 174.668 64.127C174.668 64.9743 174.556 65.544 174.332 65.8358C174.108 66.1275 173.666 66.3018 173.008 66.3603C173.604 66.4991 174.005 66.6857 174.21 66.9189C174.415 67.1519 174.543 67.3658 174.593 67.5613C174.643 67.756 174.668 68.2934 174.668 69.1724V72.0441H171.87V68.4254C171.87 67.8421 171.821 67.481 171.723 67.3424C171.626 67.2039 171.369 67.1336 170.954 67.1336V72.0441H167.941V61.1533ZM170.954 63.0171V65.4382C171.293 65.4382 171.53 65.3952 171.666 65.3075C171.802 65.2204 171.87 64.9368 171.87 64.4563V63.8578C171.87 63.5133 171.804 63.286 171.674 63.179C171.542 63.0709 171.302 63.0171 170.954 63.0171Z" fill="#B4C563"/>
<path d="M176.201 61.1533H178.333C179.755 61.1533 180.718 61.2052 181.221 61.3083C181.724 61.4115 182.134 61.6746 182.452 62.0989C182.769 62.5227 182.927 63.1989 182.927 64.127C182.927 64.9743 182.815 65.544 182.591 65.8358C182.367 66.1275 181.925 66.3018 181.267 66.3603C181.864 66.4991 182.264 66.6857 182.47 66.9189C182.674 67.1519 182.802 67.3658 182.852 67.5613C182.902 67.756 182.927 68.2934 182.927 69.1724V72.0441H180.129V68.4254C180.129 67.8421 180.081 67.481 179.982 67.3424C179.885 67.2039 179.628 67.1336 179.213 67.1336V72.0441H176.201V61.1533H176.201ZM179.213 63.0171V65.4382C179.552 65.4382 179.79 65.3952 179.925 65.3075C180.062 65.2204 180.129 64.9368 180.129 64.4563V63.8578C180.129 63.5133 180.064 63.286 179.932 63.179C179.801 63.0709 179.561 63.0171 179.213 63.0171Z" fill="#B4C563"/>
<path d="M184.46 61.1533H189.483V63.3327H187.473V65.3986H189.355V67.4705H187.473V69.8646H189.685V72.0441H184.46V61.1533H184.46Z" fill="#B4C563"/>
<path d="M190.916 61.1533H193.049C194.47 61.1533 195.432 61.2052 195.936 61.3083C196.439 61.4115 196.85 61.6746 197.167 62.0989C197.484 62.5227 197.643 63.1989 197.643 64.127C197.643 64.9743 197.531 65.544 197.307 65.8358C197.083 66.1275 196.641 66.3018 195.983 66.3603C196.579 66.4991 196.98 66.6857 197.185 66.9189C197.389 67.1519 197.518 67.3658 197.567 67.5613C197.618 67.756 197.643 68.2934 197.643 69.1724V72.0441H194.845V68.4254C194.845 67.8421 194.796 67.481 194.698 67.3424C194.6 67.2039 194.344 67.1336 193.929 67.1336V72.0441H190.915V61.1533H190.916ZM193.929 63.0171V65.4382C194.267 65.4382 194.505 65.3952 194.641 65.3075C194.777 65.2204 194.845 64.9368 194.845 64.4563V63.8578C194.845 63.5133 194.779 63.286 194.648 63.179C194.516 63.0709 194.277 63.0171 193.929 63.0171Z" fill="#B4C563"/>
<path d="M204.383 61.1533L206.106 72.0438H203.028L202.866 70.0866H201.788L201.607 72.0438H198.492L200.029 61.1533H204.383ZM202.787 68.1559C202.634 66.9229 202.481 65.3978 202.327 63.5823C202.02 65.667 201.828 67.1921 201.75 68.1559H202.787Z" fill="#B4C563"/>
<path d="M100.197 13.2682V18.7775H98.7528V13.2682H100.197Z" fill="#003C88"/>
<path d="M104.35 13.2682V18.7775H103.085L102.334 16.2732V18.7775H101.127V13.2682H102.334L103.143 15.7489V13.2682H104.35Z" fill="#003C88"/>
<path d="M108.34 14.9357H106.999V14.5277C106.999 14.337 106.982 14.2157 106.948 14.1632C106.913 14.1113 106.856 14.0848 106.776 14.0848C106.689 14.0848 106.624 14.1205 106.579 14.1905C106.535 14.2611 106.512 14.3674 106.512 14.5104C106.512 14.6943 106.537 14.8329 106.587 14.926C106.635 15.0189 106.771 15.1315 106.995 15.2627C107.638 15.6413 108.043 15.9517 108.209 16.1945C108.377 16.4374 108.46 16.8287 108.46 17.3687C108.46 17.7612 108.413 18.0507 108.321 18.2367C108.228 18.4228 108.05 18.5789 107.784 18.7043C107.519 18.83 107.21 18.8932 106.859 18.8932C106.472 18.8932 106.142 18.8208 105.869 18.6754C105.596 18.5303 105.417 18.3453 105.333 18.1207C105.248 17.8966 105.206 17.5778 105.206 17.1646V16.804H106.546V17.4747C106.546 17.681 106.565 17.8135 106.604 17.8728C106.641 17.9315 106.708 17.9615 106.804 17.9615C106.9 17.9615 106.971 17.9234 107.018 17.8489C107.065 17.7741 107.088 17.6629 107.088 17.5154C107.088 17.1913 107.044 16.979 106.955 16.8788C106.863 16.7794 106.638 16.6125 106.279 16.3789C105.92 16.143 105.683 15.9717 105.566 15.8649C105.449 15.7584 105.353 15.6112 105.276 15.4225C105.199 15.2344 105.161 14.9937 105.161 14.7012C105.161 14.2792 105.216 13.9706 105.324 13.7757C105.433 13.5805 105.609 13.428 105.851 13.3181C106.093 13.2081 106.386 13.153 106.729 13.153C107.103 13.153 107.423 13.2131 107.687 13.3335C107.951 13.4537 108.126 13.6051 108.211 13.7875C108.297 13.9701 108.34 14.2805 108.34 14.7185V14.9357H108.34Z" fill="#003C88"/>
<path d="M112.171 13.2682V14.3708H111.313V18.7775H109.87V14.3708H109.016V13.2682H112.171Z" fill="#003C88"/>
<path d="M114.294 13.2682V18.7775H112.851V13.2682H114.294Z" fill="#003C88"/>
<path d="M118.133 13.2682V14.3708H117.275V18.7775H115.832V14.3708H114.978V13.2682H118.133Z" fill="#003C88"/>
<path d="M122.094 13.2682V16.9502C122.094 17.3676 122.081 17.661 122.053 17.83C122.026 17.999 121.945 18.1727 121.81 18.3506C121.675 18.5285 121.497 18.6634 121.277 18.7555C121.056 18.8473 120.796 18.893 120.496 18.893C120.165 18.893 119.872 18.8386 119.619 18.7295C119.365 18.6209 119.176 18.4789 119.049 18.3044C118.924 18.1296 118.849 17.9452 118.826 17.7515C118.803 17.5574 118.792 17.1496 118.792 16.528V13.2682H120.235V17.3994C120.235 17.6397 120.249 17.7935 120.275 17.8602C120.301 17.9271 120.354 17.9612 120.434 17.9612C120.526 17.9612 120.585 17.9239 120.611 17.8502C120.637 17.7764 120.65 17.6025 120.65 17.3277V13.2682H122.094Z" fill="#003C88"/>
<path d="M125.912 13.2682V14.3708H125.055V18.7775H123.611V14.3708H122.757V13.2682H125.912Z" fill="#003C88"/>
<path d="M129.891 16.4941C129.891 17.0475 129.877 17.4398 129.851 17.6697C129.825 17.9001 129.743 18.1105 129.605 18.3008C129.467 18.4915 129.28 18.6374 129.044 18.74C128.809 18.8421 128.534 18.893 128.221 18.893C127.924 18.893 127.657 18.8447 127.42 18.7484C127.184 18.6521 126.993 18.5075 126.849 18.3144C126.705 18.1218 126.619 17.9119 126.592 17.6852C126.565 17.4585 126.551 17.0615 126.551 16.4941V15.5516C126.551 14.9982 126.564 14.6059 126.591 14.3761C126.617 14.1457 126.699 13.9352 126.838 13.745C126.976 13.5545 127.162 13.4078 127.398 13.3057C127.633 13.2039 127.908 13.1528 128.221 13.1528C128.518 13.1528 128.785 13.2008 129.022 13.2976C129.258 13.3937 129.449 13.5385 129.593 13.7311C129.737 13.9242 129.822 14.1336 129.85 14.3609C129.877 14.5873 129.891 14.9843 129.891 15.5516V16.4941ZM128.447 14.6841C128.447 14.4275 128.433 14.2638 128.405 14.1921C128.376 14.121 128.317 14.0851 128.228 14.0851C128.152 14.0851 128.095 14.1139 128.055 14.1722C128.015 14.2302 127.994 14.4002 127.994 14.6841V17.2567C127.994 17.5765 128.008 17.7741 128.034 17.8489C128.06 17.9234 128.121 17.9615 128.217 17.9615C128.315 17.9615 128.378 17.9182 128.406 17.8321C128.433 17.746 128.447 17.5406 128.447 17.216V14.6841H128.447Z" fill="#003C88"/>
<path d="M135.428 14.9357H134.087V14.5277C134.087 14.337 134.07 14.2157 134.036 14.1632C134.002 14.1113 133.944 14.0848 133.865 14.0848C133.777 14.0848 133.712 14.1205 133.667 14.1905C133.623 14.2611 133.601 14.3674 133.601 14.5104C133.601 14.6943 133.626 14.8329 133.676 14.926C133.724 15.0189 133.859 15.1315 134.084 15.2627C134.726 15.6413 135.131 15.9517 135.298 16.1945C135.465 16.4374 135.548 16.8287 135.548 17.3687C135.548 17.7612 135.501 18.0507 135.409 18.2367C135.317 18.4228 135.138 18.5789 134.873 18.7043C134.607 18.83 134.299 18.8932 133.947 18.8932C133.56 18.8932 133.231 18.8208 132.958 18.6754C132.684 18.5303 132.505 18.3453 132.421 18.1207C132.336 17.8966 132.294 17.5778 132.294 17.1646V16.804H133.635V17.4747C133.635 17.681 133.653 17.8135 133.691 17.8728C133.729 17.9315 133.796 17.9615 133.892 17.9615C133.988 17.9615 134.06 17.9234 134.106 17.8489C134.153 17.7741 134.177 17.6629 134.177 17.5154C134.177 17.1913 134.132 16.979 134.043 16.8788C133.951 16.7794 133.727 16.6125 133.368 16.3789C133.008 16.143 132.771 15.9717 132.654 15.8649C132.538 15.7584 132.441 15.6112 132.364 15.4225C132.288 15.2344 132.25 14.9937 132.25 14.7012C132.25 14.2792 132.304 13.9706 132.412 13.7757C132.521 13.5805 132.696 13.428 132.939 13.3181C133.181 13.2081 133.474 13.153 133.817 13.153C134.192 13.153 134.511 13.2131 134.775 13.3335C135.039 13.4537 135.214 13.6051 135.299 13.7875C135.385 13.9701 135.428 14.2805 135.428 14.7185V14.9357H135.428Z" fill="#003C88"/>
<path d="M139.633 13.2682V16.9502C139.633 17.3676 139.619 17.661 139.592 17.83C139.565 17.999 139.483 18.1727 139.348 18.3506C139.213 18.5287 139.036 18.6634 138.815 18.7555C138.595 18.8473 138.335 18.893 138.035 18.893C137.703 18.893 137.411 18.8386 137.157 18.7295C136.903 18.6209 136.714 18.4789 136.588 18.3044C136.462 18.1296 136.388 17.9452 136.365 17.7515C136.342 17.5574 136.33 17.1496 136.33 16.528V13.2682H137.774V17.3994C137.774 17.6397 137.787 17.7935 137.813 17.8602C137.84 17.9271 137.893 17.9612 137.973 17.9612C138.064 17.9612 138.123 17.9239 138.15 17.8502C138.176 17.7764 138.189 17.6025 138.189 17.3277V13.2682H139.633Z" fill="#003C88"/>
<path d="M140.543 13.2682H141.997C142.39 13.2682 142.692 13.2989 142.904 13.3603C143.115 13.4214 143.274 13.5099 143.38 13.6258C143.486 13.741 143.559 13.8814 143.596 14.0462C143.634 14.2105 143.653 14.4652 143.653 14.8098V15.29C143.653 15.6413 143.616 15.8979 143.543 16.0591C143.47 16.2196 143.336 16.3435 143.14 16.4296C142.945 16.5159 142.689 16.5589 142.374 16.5589H141.986V18.7778H140.543V13.2682H140.543ZM141.987 14.211V15.613C142.028 15.6153 142.063 15.6161 142.093 15.6161C142.226 15.6161 142.317 15.5839 142.369 15.5196C142.42 15.4548 142.446 15.3204 142.446 15.1163V14.6636C142.446 14.4752 142.416 14.3527 142.357 14.2963C142.297 14.2391 142.174 14.211 141.987 14.211Z" fill="#003C88"/>
<path d="M144.419 13.2682H146.826V14.3708H145.862V15.4151H146.764V16.4631H145.862V17.6749H146.922V18.7772H144.419V13.2682Z" fill="#003C88"/>
<path d="M147.688 13.2682H148.71C149.391 13.2682 149.852 13.2944 150.093 13.3464C150.335 13.3986 150.531 13.5322 150.684 13.7465C150.835 13.9604 150.911 14.3028 150.911 14.7723C150.911 15.201 150.857 15.4889 150.75 15.6366C150.642 15.7841 150.431 15.8725 150.116 15.9019C150.401 15.9727 150.593 16.0667 150.691 16.1845C150.79 16.3023 150.851 16.4107 150.875 16.5093C150.899 16.608 150.911 16.8798 150.911 17.3243V18.7772H149.57V16.9462C149.57 16.6515 149.547 16.4689 149.5 16.3983C149.453 16.3283 149.331 16.2928 149.132 16.2928V18.7772H147.688V13.2682ZM149.132 14.211V15.4361C149.294 15.4361 149.408 15.4138 149.473 15.3697C149.538 15.3251 149.57 15.1816 149.57 14.9389V14.6363C149.57 14.4613 149.539 14.3469 149.476 14.2923C149.413 14.2383 149.299 14.211 149.132 14.211Z" fill="#003C88"/>
<path d="M153.265 13.2682V18.7775H151.821V13.2682H153.265Z" fill="#003C88"/>
<path d="M157.494 16.4941C157.494 17.0475 157.48 17.4398 157.454 17.6697C157.428 17.9001 157.346 18.1105 157.208 18.3008C157.07 18.4915 156.883 18.6374 156.647 18.74C156.412 18.8421 156.137 18.893 155.824 18.893C155.526 18.893 155.26 18.8447 155.023 18.7484C154.786 18.6521 154.596 18.5075 154.452 18.3144C154.309 18.1218 154.223 17.9119 154.195 17.6852C154.168 17.4585 154.154 17.0615 154.154 16.4941V15.5516C154.154 14.9982 154.168 14.6059 154.194 14.3761C154.219 14.1457 154.302 13.9352 154.44 13.745C154.579 13.5545 154.765 13.4078 155.001 13.3057C155.236 13.2039 155.511 13.1528 155.824 13.1528C156.121 13.1528 156.388 13.2008 156.624 13.2976C156.861 13.3937 157.052 13.5385 157.195 13.7311C157.34 13.9242 157.425 14.1336 157.453 14.3609C157.48 14.5873 157.494 14.9843 157.494 15.5516V16.4941ZM156.05 14.6841C156.05 14.4275 156.035 14.2638 156.007 14.1921C155.979 14.121 155.92 14.0851 155.831 14.0851C155.756 14.0851 155.698 14.1139 155.658 14.1722C155.617 14.2302 155.597 14.4002 155.597 14.6841V17.2567C155.597 17.5765 155.611 17.7741 155.637 17.8489C155.663 17.9234 155.725 17.9615 155.82 17.9615C155.918 17.9615 155.982 17.9182 156.009 17.8321C156.037 17.746 156.05 17.5406 156.05 17.216V14.6841Z" fill="#003C88"/>
<path d="M158.384 13.2682H159.405C160.086 13.2682 160.548 13.2944 160.788 13.3464C161.03 13.3986 161.226 13.5322 161.378 13.7465C161.53 13.9604 161.606 14.3028 161.606 14.7723C161.606 15.201 161.552 15.4889 161.445 15.6366C161.338 15.7841 161.127 15.8725 160.811 15.9019C161.096 15.9727 161.289 16.0667 161.386 16.1845C161.485 16.3023 161.546 16.4107 161.57 16.5093C161.594 16.608 161.606 16.8798 161.606 17.3243V18.7772H160.266V16.9462C160.266 16.6515 160.242 16.4689 160.195 16.3983C160.148 16.3283 160.025 16.2928 159.826 16.2928V18.7772H158.384V13.2682ZM159.826 14.211V15.4361C159.989 15.4361 160.103 15.4138 160.168 15.3697C160.233 15.3251 160.266 15.1816 160.266 14.9389V14.6363C160.266 14.4613 160.234 14.3469 160.171 14.2923C160.109 14.2383 159.994 14.211 159.826 14.211Z" fill="#003C88"/>
<path d="M167.013 13.2682V14.3708H166.155V18.7775H164.712V14.3708H163.858V13.2682H167.013Z" fill="#003C88"/>
<path d="M167.693 13.2682H170.1V14.3708H169.137V15.4151H170.039V16.4631H169.137V17.6749H170.196V18.7772H167.693V13.2682Z" fill="#003C88"/>
<path d="M174.333 15.6673H172.889V14.7101C172.889 14.4317 172.874 14.258 172.843 14.1889C172.812 14.1197 172.744 14.085 172.639 14.085C172.52 14.085 172.445 14.1273 172.413 14.211C172.381 14.2947 172.364 14.4765 172.364 14.7555V17.3144C172.364 17.5823 172.381 17.7568 172.413 17.8381C172.445 17.92 172.516 17.9612 172.628 17.9612C172.736 17.9612 172.806 17.92 172.839 17.8378C172.873 17.756 172.889 17.5639 172.889 17.2616V16.5692H174.333V16.7835C174.333 17.354 174.292 17.7581 174.211 17.9966C174.13 18.2351 173.951 18.4443 173.673 18.6237C173.395 18.8035 173.053 18.893 172.646 18.893C172.222 18.893 171.874 18.8171 171.601 18.6649C171.326 18.5133 171.145 18.3026 171.055 18.0339C170.966 17.7654 170.92 17.3608 170.92 16.8208V15.2112C170.92 14.8142 170.935 14.5167 170.962 14.318C170.989 14.1194 171.071 13.9284 171.208 13.7447C171.343 13.561 171.532 13.4159 171.774 13.3107C172.014 13.2055 172.291 13.1525 172.605 13.1525C173.03 13.1525 173.38 13.2338 173.657 13.3973C173.934 13.5602 174.116 13.7636 174.203 14.0068C174.289 14.2509 174.333 14.6295 174.333 15.1438V15.6673Z" fill="#003C88"/>
<path d="M178.425 13.2682V18.7775H177.159L176.409 16.2732V18.7775H175.202V13.2682H176.409L177.218 15.7489V13.2682H178.425Z" fill="#003C88"/>
<path d="M182.654 16.4941C182.654 17.0475 182.64 17.4398 182.615 17.6697C182.588 17.9001 182.506 18.1105 182.368 18.3008C182.229 18.4915 182.042 18.6374 181.807 18.74C181.571 18.8421 181.297 18.893 180.984 18.893C180.687 18.893 180.42 18.8447 180.183 18.7484C179.947 18.6521 179.756 18.5075 179.612 18.3144C179.469 18.1218 179.382 17.9119 179.356 17.6852C179.328 17.4585 179.314 17.0615 179.314 16.4941V15.5516C179.314 14.9982 179.327 14.6059 179.353 14.3761C179.38 14.1457 179.462 13.9352 179.6 13.745C179.739 13.5545 179.925 13.4078 180.161 13.3057C180.396 13.2039 180.671 13.1528 180.984 13.1528C181.281 13.1528 181.548 13.2008 181.785 13.2976C182.021 13.3937 182.212 13.5385 182.356 13.7311C182.499 13.9242 182.585 14.1336 182.613 14.3609C182.64 14.5873 182.654 14.9843 182.654 15.5516V16.4941H182.654ZM181.21 14.6841C181.21 14.4275 181.196 14.2638 181.168 14.1921C181.139 14.121 181.08 14.0851 180.991 14.0851C180.915 14.0851 180.857 14.1139 180.818 14.1722C180.778 14.2302 180.758 14.4002 180.758 14.6841V17.2567C180.758 17.5765 180.771 17.7741 180.797 17.8489C180.824 17.9234 180.885 17.9615 180.981 17.9615C181.079 17.9615 181.141 17.9182 181.169 17.8321C181.197 17.746 181.21 17.5406 181.21 17.216V14.6841Z" fill="#003C88"/>
<path d="M184.987 13.2682V17.6752H185.865V18.7775H183.543V13.2682H184.987Z" fill="#003C88"/>
<path d="M189.758 16.4941C189.758 17.0475 189.745 17.4398 189.718 17.6697C189.692 17.9 189.61 18.1105 189.472 18.3007C189.334 18.4915 189.146 18.6374 188.912 18.74C188.676 18.8421 188.401 18.893 188.088 18.893C187.791 18.893 187.524 18.8447 187.287 18.7484C187.051 18.6521 186.86 18.5075 186.716 18.3144C186.573 18.1218 186.487 17.9119 186.459 17.6851C186.432 17.4584 186.418 17.0614 186.418 16.4941V15.5516C186.418 14.9982 186.431 14.6059 186.457 14.376C186.484 14.1457 186.566 13.9352 186.704 13.745C186.842 13.5545 187.029 13.4078 187.265 13.3057C187.5 13.2039 187.775 13.1527 188.088 13.1527C188.385 13.1527 188.651 13.2008 188.888 13.2976C189.125 13.3936 189.315 13.5385 189.459 13.7311C189.603 13.9242 189.689 14.1336 189.716 14.3608C189.744 14.5873 189.758 14.9843 189.758 15.5516V16.4941H189.758ZM189.254 12.1724L188.126 13.0948H187.43L188.033 12.1724H189.254ZM188.314 14.6841C188.314 14.4275 188.3 14.2637 188.272 14.1921C188.243 14.121 188.184 14.085 188.095 14.085C188.019 14.085 187.961 14.1139 187.922 14.1722C187.881 14.2301 187.862 14.4002 187.862 14.6841V17.2566C187.862 17.5765 187.875 17.7741 187.901 17.8489C187.927 17.9234 187.988 17.9615 188.085 17.9615C188.183 17.9615 188.245 17.9182 188.273 17.8321C188.3 17.746 188.314 17.5406 188.314 17.216V14.6841Z" fill="#003C88"/>
<path d="M193.96 15.2963H192.516V14.7964C192.516 14.4813 192.502 14.2837 192.475 14.2042C192.447 14.1247 192.382 14.085 192.28 14.085C192.191 14.085 192.13 14.1192 192.097 14.1874C192.066 14.2553 192.05 14.4301 192.05 14.7114V17.3553C192.05 17.6025 192.066 17.7654 192.097 17.8436C192.13 17.9216 192.194 17.9612 192.289 17.9612C192.394 17.9612 192.467 17.9166 192.504 17.8279C192.542 17.7395 192.561 17.5671 192.561 17.311V16.6573H192.269V15.8206H193.96V18.7778H193.053L192.919 18.3831C192.82 18.5529 192.696 18.681 192.547 18.7657C192.397 18.8507 192.22 18.8932 192.016 18.8932C191.773 18.8932 191.547 18.8347 191.335 18.7182C191.123 18.6014 190.963 18.4569 190.853 18.2845C190.742 18.1121 190.674 17.9308 190.647 17.7418C190.62 17.5519 190.606 17.2679 190.606 16.8893V15.2527C190.606 14.7261 190.634 14.3438 190.692 14.1058C190.749 13.8675 190.912 13.6495 191.184 13.4506C191.454 13.2522 191.805 13.153 192.235 13.153C192.658 13.153 193.008 13.2391 193.287 13.4115C193.566 13.5839 193.748 13.7888 193.832 14.0257C193.917 14.2627 193.959 14.6075 193.959 15.0585V15.2963H193.96Z" fill="#003C88"/>
<path d="M196.313 13.2682V18.7775H194.87V13.2682H196.313Z" fill="#003C88"/>
<path d="M200.614 15.6673H199.17V14.7101C199.17 14.4317 199.155 14.258 199.124 14.1889C199.094 14.1197 199.025 14.085 198.92 14.085C198.802 14.085 198.726 14.1273 198.694 14.211C198.662 14.2947 198.646 14.4765 198.646 14.7555V17.3144C198.646 17.5823 198.662 17.7568 198.694 17.8381C198.726 17.92 198.798 17.9612 198.911 17.9612C199.017 17.9612 199.087 17.92 199.122 17.8378C199.154 17.756 199.17 17.5639 199.17 17.2616V16.5692H200.614V16.7835C200.614 17.354 200.574 17.7581 200.493 17.9966C200.411 18.2351 200.232 18.4443 199.955 18.6237C199.676 18.8035 199.334 18.893 198.927 18.893C198.505 18.893 198.156 18.8171 197.882 18.6649C197.607 18.5133 197.426 18.3026 197.336 18.0339C197.247 17.7654 197.203 17.3608 197.203 16.8208V15.2112C197.203 14.8142 197.216 14.5167 197.243 14.318C197.271 14.1194 197.353 13.9284 197.489 13.7447C197.625 13.561 197.813 13.4159 198.054 13.3107C198.296 13.2055 198.573 13.1525 198.886 13.1525C199.311 13.1525 199.662 13.2338 199.939 13.3973C200.215 13.5602 200.397 13.7636 200.484 14.0068C200.571 14.2509 200.614 14.6295 200.614 15.1438V15.6673H200.614Z" fill="#003C88"/>
<path d="M204.782 16.4941C204.782 17.0475 204.769 17.4398 204.743 17.6697C204.716 17.9001 204.633 18.1105 204.496 18.3008C204.357 18.4915 204.17 18.6374 203.935 18.74C203.699 18.8421 203.425 18.893 203.112 18.893C202.815 18.893 202.548 18.8447 202.311 18.7484C202.075 18.6521 201.884 18.5075 201.74 18.3144C201.596 18.1218 201.51 17.9119 201.483 17.6852C201.456 17.4585 201.442 17.0615 201.442 16.4941V15.5516C201.442 14.9982 201.455 14.6059 201.481 14.3761C201.508 14.1457 201.589 13.9352 201.728 13.745C201.866 13.5545 202.053 13.4078 202.288 13.3057C202.524 13.2039 202.799 13.1528 203.112 13.1528C203.409 13.1528 203.675 13.2008 203.912 13.2976C204.149 13.3937 204.339 13.5385 204.483 13.7311C204.627 13.9242 204.713 14.1336 204.74 14.3609C204.768 14.5873 204.781 14.9843 204.781 15.5516V16.4941H204.782ZM203.338 14.6841C203.338 14.4275 203.324 14.2638 203.295 14.1921C203.267 14.121 203.208 14.0851 203.119 14.0851C203.043 14.0851 202.985 14.1139 202.946 14.1722C202.906 14.2302 202.886 14.4002 202.886 14.6841V17.2567C202.886 17.5765 202.899 17.7741 202.925 17.8489C202.951 17.9234 203.012 17.9615 203.108 17.9615C203.207 17.9615 203.269 17.9182 203.297 17.8321C203.325 17.746 203.338 17.5406 203.338 17.216V14.6841Z" fill="#003C88"/>
</g>
<defs>
<filter id="filter0_d" x="400.144" y="22.004" width="131.45" height="26.036" filterUnits="userSpaceOnUse" color-interpolation-filters="sRGB">
<feFlood flood-opacity="0" result="BackgroundImageFix"/>
<feColorMatrix in="SourceAlpha" type="matrix" values="0 0 0 0 0 0 0 0 0 0 0 0 0 0 0 0 0 0 127 0" result="hardAlpha"/>
<feOffset dy="4"/>
<feGaussianBlur stdDeviation="2"/>
<feColorMatrix type="matrix" values="0 0 0 0 0 0 0 0 0 0 0 0 0 0 0 0 0 0 0.5 0"/>
<feBlend mode="normal" in2="BackgroundImageFix" result="effect1_dropShadow"/>
<feBlend mode="normal" in="SourceGraphic" in2="effect1_dropShadow" result="shape"/>
</filter>
<clipPath id="clip0">
<rect width="150" height="75.862" fill="white" transform="translate(76 5)"/>
</clipPath>
</defs>
</svg>
