<svg width="595" height="76" viewBox="0 0 595 76" fill="none" xmlns="http://www.w3.org/2000/svg">
<path d="M0 7.70475C0 7.70475 81.2616 49.2996 297.5 13.3337C513.738 -22.6322 595 25.8853 595 25.8853V62.2461H0V7.70475Z" fill="#67E622"/>
<path d="M0 9.01029C0 9.01029 81.2616 50.6052 297.5 14.6392C513.738 -21.3267 595 27.1908 595 27.1908V63.5516H0V9.01029Z" fill="#9DBD56"/>
<path d="M0 16.376C0 16.376 81.2616 57.9709 297.5 22.005C513.738 -13.961 595 34.5566 595 34.5566V70.9173H0V16.376Z" fill="#007236"/>
<path d="M0 17.6816C0 17.6816 81.2616 59.2765 297.5 23.3106C513.738 -12.6554 595 35.8622 595 35.8622V72.2229H0V17.6816Z" fill="white"/>
<path d="M1 21.6219C1 21.6219 82.125 63.0923 298 27.234C513.875 -8.62426 595 39.7481 595 39.7481V76H1V21.6219Z" fill="#E7EFD5"/>
<path d="M296.32 56.9766C296.289 57.6276 296.129 58.1419 295.84 58.5195C295.551 58.8945 295.159 59.082 294.664 59.082C294.193 59.082 293.878 58.8815 293.719 58.4805C293.586 58.6784 293.431 58.8268 293.254 58.9258C293.079 59.0247 292.896 59.0742 292.703 59.0742C292.323 59.0742 292.034 58.918 291.836 58.6055C291.641 58.293 291.566 57.875 291.613 57.3516C291.655 56.9271 291.758 56.5443 291.922 56.2031C292.089 55.862 292.298 55.599 292.551 55.4141C292.806 55.2266 293.077 55.1328 293.363 55.1328C293.582 55.1328 293.775 55.1602 293.941 55.2148C294.111 55.2695 294.309 55.3828 294.535 55.5547L294.332 57.7539C294.283 58.2695 294.431 58.5273 294.777 58.5273C295.043 58.5273 295.26 58.3854 295.43 58.1016C295.602 57.8151 295.695 57.4453 295.711 56.9922C295.755 56.0312 295.569 55.2956 295.152 54.7852C294.738 54.2747 294.115 54.0195 293.281 54.0195C292.771 54.0195 292.318 54.1471 291.922 54.4023C291.529 54.6576 291.216 55.0273 290.984 55.5117C290.753 55.9935 290.625 56.543 290.602 57.1602C290.57 57.7878 290.645 58.3294 290.824 58.7852C291.007 59.2383 291.284 59.5833 291.656 59.8203C292.031 60.0573 292.488 60.1758 293.027 60.1758C293.246 60.1758 293.474 60.1497 293.711 60.0977C293.951 60.0456 294.154 59.9753 294.32 59.8867L294.469 60.4219C294.31 60.526 294.095 60.6094 293.824 60.6719C293.556 60.737 293.285 60.7695 293.012 60.7695C292.35 60.7695 291.783 60.6289 291.309 60.3477C290.835 60.069 290.479 59.6641 290.242 59.1328C289.997 58.5833 289.889 57.9258 289.918 57.1602C289.949 56.4466 290.109 55.806 290.398 55.2383C290.688 54.668 291.082 54.2253 291.582 53.9102C292.085 53.5951 292.656 53.4375 293.297 53.4375C293.945 53.4375 294.503 53.5807 294.969 53.8672C295.438 54.151 295.788 54.5612 296.02 55.0977C296.251 55.6315 296.352 56.2578 296.32 56.9766ZM292.379 57.3516C292.345 57.7057 292.376 57.9753 292.473 58.1602C292.569 58.3424 292.723 58.4336 292.934 58.4336C293.074 58.4336 293.207 58.3724 293.332 58.25C293.457 58.125 293.559 57.9544 293.637 57.7383L293.812 55.8125C293.682 55.763 293.556 55.7383 293.434 55.7383C293.145 55.7383 292.909 55.875 292.727 56.1484C292.544 56.4193 292.428 56.8203 292.379 57.3516ZM298.172 59H297.223V54.7734H298.172V59ZM297.164 53.6758C297.164 53.5299 297.21 53.4089 297.301 53.3125C297.395 53.2161 297.527 53.168 297.699 53.168C297.871 53.168 298.004 53.2161 298.098 53.3125C298.191 53.4089 298.238 53.5299 298.238 53.6758C298.238 53.819 298.191 53.9388 298.098 54.0352C298.004 54.1289 297.871 54.1758 297.699 54.1758C297.527 54.1758 297.395 54.1289 297.301 54.0352C297.21 53.9388 297.164 53.819 297.164 53.6758ZM301.578 57.8516C301.578 57.6823 301.508 57.5534 301.367 57.4648C301.229 57.3763 300.999 57.2982 300.676 57.2305C300.353 57.1628 300.083 57.0768 299.867 56.9727C299.393 56.7435 299.156 56.4115 299.156 55.9766C299.156 55.612 299.31 55.3073 299.617 55.0625C299.924 54.8177 300.315 54.6953 300.789 54.6953C301.294 54.6953 301.702 54.8203 302.012 55.0703C302.324 55.3203 302.48 55.6445 302.48 56.043H301.531C301.531 55.8607 301.464 55.7096 301.328 55.5898C301.193 55.4674 301.013 55.4062 300.789 55.4062C300.581 55.4062 300.41 55.4544 300.277 55.5508C300.147 55.6471 300.082 55.776 300.082 55.9375C300.082 56.0833 300.143 56.1966 300.266 56.2773C300.388 56.3581 300.635 56.4401 301.008 56.5234C301.38 56.6042 301.672 56.7018 301.883 56.8164C302.096 56.9284 302.254 57.0638 302.355 57.2227C302.46 57.3815 302.512 57.5742 302.512 57.8008C302.512 58.181 302.354 58.4896 302.039 58.7266C301.724 58.9609 301.311 59.0781 300.801 59.0781C300.454 59.0781 300.146 59.0156 299.875 58.8906C299.604 58.7656 299.393 58.5938 299.242 58.375C299.091 58.1562 299.016 57.9206 299.016 57.668H299.938C299.951 57.8919 300.035 58.0651 300.191 58.1875C300.348 58.3073 300.555 58.3672 300.812 58.3672C301.062 58.3672 301.253 58.3203 301.383 58.2266C301.513 58.1302 301.578 58.0052 301.578 57.8516ZM304.531 53.7461V54.7734H305.277V55.4766H304.531V57.8359C304.531 57.9974 304.562 58.1146 304.625 58.1875C304.69 58.2578 304.805 58.293 304.969 58.293C305.078 58.293 305.189 58.2799 305.301 58.2539V58.9883C305.085 59.0482 304.876 59.0781 304.676 59.0781C303.947 59.0781 303.582 58.6758 303.582 57.8711V55.4766H302.887V54.7734H303.582V53.7461H304.531ZM308.531 59C308.49 58.9193 308.453 58.7878 308.422 58.6055C308.12 58.9206 307.75 59.0781 307.312 59.0781C306.888 59.0781 306.542 58.957 306.273 58.7148C306.005 58.4727 305.871 58.1732 305.871 57.8164C305.871 57.3659 306.038 57.0208 306.371 56.7812C306.707 56.5391 307.186 56.418 307.809 56.418H308.391V56.1406C308.391 55.9219 308.329 55.7474 308.207 55.6172C308.085 55.4844 307.898 55.418 307.648 55.418C307.432 55.418 307.255 55.4727 307.117 55.582C306.979 55.6888 306.91 55.8255 306.91 55.9922H305.961C305.961 55.7604 306.038 55.5443 306.191 55.3438C306.345 55.1406 306.553 54.9818 306.816 54.8672C307.082 54.7526 307.378 54.6953 307.703 54.6953C308.198 54.6953 308.592 54.8203 308.887 55.0703C309.181 55.3177 309.332 55.6667 309.34 56.1172V58.0234C309.34 58.4036 309.393 58.707 309.5 58.9336V59H308.531ZM307.488 58.3164C307.676 58.3164 307.852 58.2708 308.016 58.1797C308.182 58.0885 308.307 57.9661 308.391 57.8125V57.0156H307.879C307.527 57.0156 307.263 57.0768 307.086 57.1992C306.909 57.3216 306.82 57.4948 306.82 57.7188C306.82 57.901 306.88 58.0469 307 58.1562C307.122 58.263 307.285 58.3164 307.488 58.3164ZM311.27 55.2344C311.579 54.875 311.971 54.6953 312.445 54.6953C313.346 54.6953 313.803 55.2096 313.816 56.2383V59H312.867V56.2734C312.867 55.9818 312.803 55.776 312.676 55.6562C312.551 55.5339 312.366 55.4727 312.121 55.4727C311.741 55.4727 311.457 55.6419 311.27 55.9805V59H310.32V53H311.27V55.2344ZM317.289 59H316.344V54.4336L314.949 54.9102V54.1094L317.168 53.293H317.289V59ZM321.957 56.6211C321.639 56.957 321.268 57.125 320.844 57.125C320.344 57.125 319.945 56.9505 319.648 56.6016C319.352 56.25 319.203 55.7891 319.203 55.2188C319.203 54.8438 319.279 54.5039 319.43 54.1992C319.581 53.8945 319.796 53.6576 320.074 53.4883C320.353 53.319 320.676 53.2344 321.043 53.2344C321.616 53.2344 322.07 53.4479 322.406 53.875C322.742 54.3021 322.91 54.8737 322.91 55.5898V55.8555C322.91 56.8815 322.678 57.6641 322.215 58.2031C321.751 58.7422 321.06 59.0156 320.141 59.0234H320.027V58.2383H320.164C320.724 58.2305 321.154 58.0964 321.453 57.8359C321.753 57.5729 321.921 57.168 321.957 56.6211ZM321.043 56.3828C321.233 56.3828 321.411 56.3281 321.578 56.2188C321.745 56.1094 321.874 55.9583 321.965 55.7656V55.3945C321.965 54.9753 321.879 54.638 321.707 54.3828C321.535 54.1276 321.312 54 321.039 54C320.766 54 320.547 54.1133 320.383 54.3398C320.221 54.5638 320.141 54.8477 320.141 55.1914C320.141 55.5482 320.223 55.8359 320.387 56.0547C320.551 56.2734 320.77 56.3828 321.043 56.3828ZM327.023 56.9727H327.73V57.7344H327.023V59H326.074V57.7344H323.617L323.59 57.1562L326.043 53.3125H327.023V56.9727ZM324.586 56.9727H326.074V54.5977L326.004 54.7227L324.586 56.9727ZM331.57 56.9727H332.277V57.7344H331.57V59H330.621V57.7344H328.164L328.137 57.1562L330.59 53.3125H331.57V56.9727ZM329.133 56.9727H330.621V54.5977L330.551 54.7227L329.133 56.9727Z" fill="#27223A"/>
<path d="M516.125 56.9766C516.094 57.6276 515.934 58.1419 515.645 58.5195C515.355 58.8945 514.964 59.082 514.469 59.082C513.997 59.082 513.682 58.8815 513.523 58.4805C513.391 58.6784 513.236 58.8268 513.059 58.9258C512.884 59.0247 512.701 59.0742 512.508 59.0742C512.128 59.0742 511.839 58.918 511.641 58.6055C511.445 58.293 511.371 57.875 511.418 57.3516C511.46 56.9271 511.562 56.5443 511.727 56.2031C511.893 55.862 512.103 55.599 512.355 55.4141C512.611 55.2266 512.882 55.1328 513.168 55.1328C513.387 55.1328 513.579 55.1602 513.746 55.2148C513.915 55.2695 514.113 55.3828 514.34 55.5547L514.137 57.7539C514.087 58.2695 514.236 58.5273 514.582 58.5273C514.848 58.5273 515.065 58.3854 515.234 58.1016C515.406 57.8151 515.5 57.4453 515.516 56.9922C515.56 56.0312 515.374 55.2956 514.957 54.7852C514.543 54.2747 513.919 54.0195 513.086 54.0195C512.576 54.0195 512.122 54.1471 511.727 54.4023C511.333 54.6576 511.021 55.0273 510.789 55.5117C510.557 55.9935 510.43 56.543 510.406 57.1602C510.375 57.7878 510.449 58.3294 510.629 58.7852C510.811 59.2383 511.089 59.5833 511.461 59.8203C511.836 60.0573 512.293 60.1758 512.832 60.1758C513.051 60.1758 513.279 60.1497 513.516 60.0977C513.755 60.0456 513.958 59.9753 514.125 59.8867L514.273 60.4219C514.115 60.526 513.9 60.6094 513.629 60.6719C513.361 60.737 513.09 60.7695 512.816 60.7695C512.155 60.7695 511.587 60.6289 511.113 60.3477C510.639 60.069 510.284 59.6641 510.047 59.1328C509.802 58.5833 509.694 57.9258 509.723 57.1602C509.754 56.4466 509.914 55.806 510.203 55.2383C510.492 54.668 510.887 54.2253 511.387 53.9102C511.889 53.5951 512.461 53.4375 513.102 53.4375C513.75 53.4375 514.307 53.5807 514.773 53.8672C515.242 54.151 515.592 54.5612 515.824 55.0977C516.056 55.6315 516.156 56.2578 516.125 56.9766ZM512.184 57.3516C512.15 57.7057 512.181 57.9753 512.277 58.1602C512.374 58.3424 512.527 58.4336 512.738 58.4336C512.879 58.4336 513.012 58.3724 513.137 58.25C513.262 58.125 513.363 57.9544 513.441 57.7383L513.617 55.8125C513.487 55.763 513.361 55.7383 513.238 55.7383C512.949 55.7383 512.714 55.875 512.531 56.1484C512.349 56.4193 512.233 56.8203 512.184 57.3516ZM517.977 59H517.027V54.7734H517.977V59ZM516.969 53.6758C516.969 53.5299 517.014 53.4089 517.105 53.3125C517.199 53.2161 517.332 53.168 517.504 53.168C517.676 53.168 517.809 53.2161 517.902 53.3125C517.996 53.4089 518.043 53.5299 518.043 53.6758C518.043 53.819 517.996 53.9388 517.902 54.0352C517.809 54.1289 517.676 54.1758 517.504 54.1758C517.332 54.1758 517.199 54.1289 517.105 54.0352C517.014 53.9388 516.969 53.819 516.969 53.6758ZM520.203 53.7461V54.7734H520.949V55.4766H520.203V57.8359C520.203 57.9974 520.234 58.1146 520.297 58.1875C520.362 58.2578 520.477 58.293 520.641 58.293C520.75 58.293 520.861 58.2799 520.973 58.2539V58.9883C520.757 59.0482 520.548 59.0781 520.348 59.0781C519.618 59.0781 519.254 58.6758 519.254 57.8711V55.4766H518.559V54.7734H519.254V53.7461H520.203ZM524.047 57.8516C524.047 57.6823 523.977 57.5534 523.836 57.4648C523.698 57.3763 523.467 57.2982 523.145 57.2305C522.822 57.1628 522.552 57.0768 522.336 56.9727C521.862 56.7435 521.625 56.4115 521.625 55.9766C521.625 55.612 521.779 55.3073 522.086 55.0625C522.393 54.8177 522.784 54.6953 523.258 54.6953C523.763 54.6953 524.171 54.8203 524.48 55.0703C524.793 55.3203 524.949 55.6445 524.949 56.043H524C524 55.8607 523.932 55.7096 523.797 55.5898C523.661 55.4674 523.482 55.4062 523.258 55.4062C523.049 55.4062 522.879 55.4544 522.746 55.5508C522.616 55.6471 522.551 55.776 522.551 55.9375C522.551 56.0833 522.612 56.1966 522.734 56.2773C522.857 56.3581 523.104 56.4401 523.477 56.5234C523.849 56.6042 524.141 56.7018 524.352 56.8164C524.565 56.9284 524.723 57.0638 524.824 57.2227C524.928 57.3815 524.98 57.5742 524.98 57.8008C524.98 58.181 524.823 58.4896 524.508 58.7266C524.193 58.9609 523.78 59.0781 523.27 59.0781C522.923 59.0781 522.615 59.0156 522.344 58.8906C522.073 58.7656 521.862 58.5938 521.711 58.375C521.56 58.1562 521.484 57.9206 521.484 57.668H522.406C522.419 57.8919 522.504 58.0651 522.66 58.1875C522.816 58.3073 523.023 58.3672 523.281 58.3672C523.531 58.3672 523.721 58.3203 523.852 58.2266C523.982 58.1302 524.047 58.0052 524.047 57.8516ZM528.336 59C528.294 58.9193 528.258 58.7878 528.227 58.6055C527.924 58.9206 527.555 59.0781 527.117 59.0781C526.693 59.0781 526.346 58.957 526.078 58.7148C525.81 58.4727 525.676 58.1732 525.676 57.8164C525.676 57.3659 525.842 57.0208 526.176 56.7812C526.512 56.5391 526.991 56.418 527.613 56.418H528.195V56.1406C528.195 55.9219 528.134 55.7474 528.012 55.6172C527.889 55.4844 527.703 55.418 527.453 55.418C527.237 55.418 527.06 55.4727 526.922 55.582C526.784 55.6888 526.715 55.8255 526.715 55.9922H525.766C525.766 55.7604 525.842 55.5443 525.996 55.3438C526.15 55.1406 526.358 54.9818 526.621 54.8672C526.887 54.7526 527.182 54.6953 527.508 54.6953C528.003 54.6953 528.397 54.8203 528.691 55.0703C528.986 55.3177 529.137 55.6667 529.145 56.1172V58.0234C529.145 58.4036 529.198 58.707 529.305 58.9336V59H528.336ZM527.293 58.3164C527.48 58.3164 527.656 58.2708 527.82 58.1797C527.987 58.0885 528.112 57.9661 528.195 57.8125V57.0156H527.684C527.332 57.0156 527.068 57.0768 526.891 57.1992C526.714 57.3216 526.625 57.4948 526.625 57.7188C526.625 57.901 526.685 58.0469 526.805 58.1562C526.927 58.263 527.09 58.3164 527.293 58.3164ZM531.148 59H530.199V53H531.148V59ZM532.52 59V55.4766H531.875V54.7734H532.52V54.3867C532.52 53.918 532.65 53.556 532.91 53.3008C533.171 53.0456 533.535 52.918 534.004 52.918C534.171 52.918 534.348 52.9414 534.535 52.9883L534.512 53.7305C534.408 53.7096 534.286 53.6992 534.148 53.6992C533.695 53.6992 533.469 53.9323 533.469 54.3984V54.7734H534.328V55.4766H533.469V59H532.52ZM534.844 56.8477C534.844 56.4336 534.926 56.0612 535.09 55.7305C535.254 55.3971 535.484 55.1419 535.781 54.9648C536.078 54.7852 536.419 54.6953 536.805 54.6953C537.375 54.6953 537.837 54.8789 538.191 55.2461C538.548 55.6133 538.741 56.1003 538.77 56.707L538.773 56.9297C538.773 57.3464 538.693 57.7188 538.531 58.0469C538.372 58.375 538.143 58.6289 537.844 58.8086C537.547 58.9883 537.203 59.0781 536.812 59.0781C536.216 59.0781 535.738 58.8802 535.379 58.4844C535.022 58.0859 534.844 57.556 534.844 56.8945V56.8477ZM535.793 56.9297C535.793 57.3646 535.883 57.7057 536.062 57.9531C536.242 58.1979 536.492 58.3203 536.812 58.3203C537.133 58.3203 537.382 58.1953 537.559 57.9453C537.738 57.6953 537.828 57.3294 537.828 56.8477C537.828 56.4206 537.736 56.082 537.551 55.832C537.368 55.582 537.12 55.457 536.805 55.457C536.495 55.457 536.249 55.5807 536.066 55.8281C535.884 56.0729 535.793 56.4401 535.793 56.9297ZM540.457 54.7734L540.484 55.2617C540.797 54.8841 541.207 54.6953 541.715 54.6953C542.595 54.6953 543.043 55.1992 543.059 56.207V59H542.109V56.2617C542.109 55.9935 542.051 55.7956 541.934 55.668C541.819 55.5378 541.63 55.4727 541.367 55.4727C540.984 55.4727 540.699 55.6458 540.512 55.9922V59H539.562V54.7734H540.457ZM546.398 57.8516C546.398 57.6823 546.328 57.5534 546.188 57.4648C546.049 57.3763 545.819 57.2982 545.496 57.2305C545.173 57.1628 544.904 57.0768 544.688 56.9727C544.214 56.7435 543.977 56.4115 543.977 55.9766C543.977 55.612 544.13 55.3073 544.438 55.0625C544.745 54.8177 545.135 54.6953 545.609 54.6953C546.115 54.6953 546.522 54.8203 546.832 55.0703C547.145 55.3203 547.301 55.6445 547.301 56.043H546.352C546.352 55.8607 546.284 55.7096 546.148 55.5898C546.013 55.4674 545.833 55.4062 545.609 55.4062C545.401 55.4062 545.23 55.4544 545.098 55.5508C544.967 55.6471 544.902 55.776 544.902 55.9375C544.902 56.0833 544.964 56.1966 545.086 56.2773C545.208 56.3581 545.456 56.4401 545.828 56.5234C546.201 56.6042 546.492 56.7018 546.703 56.8164C546.917 56.9284 547.074 57.0638 547.176 57.2227C547.28 57.3815 547.332 57.5742 547.332 57.8008C547.332 58.181 547.174 58.4896 546.859 58.7266C546.544 58.9609 546.132 59.0781 545.621 59.0781C545.275 59.0781 544.966 59.0156 544.695 58.8906C544.424 58.7656 544.214 58.5938 544.062 58.375C543.911 58.1562 543.836 57.9206 543.836 57.668H544.758C544.771 57.8919 544.855 58.0651 545.012 58.1875C545.168 58.3073 545.375 58.3672 545.633 58.3672C545.883 58.3672 546.073 58.3203 546.203 58.2266C546.333 58.1302 546.398 58.0052 546.398 57.8516ZM547.984 56.8477C547.984 56.4336 548.066 56.0612 548.23 55.7305C548.395 55.3971 548.625 55.1419 548.922 54.9648C549.219 54.7852 549.56 54.6953 549.945 54.6953C550.516 54.6953 550.978 54.8789 551.332 55.2461C551.689 55.6133 551.882 56.1003 551.91 56.707L551.914 56.9297C551.914 57.3464 551.833 57.7188 551.672 58.0469C551.513 58.375 551.284 58.6289 550.984 58.8086C550.688 58.9883 550.344 59.0781 549.953 59.0781C549.357 59.0781 548.879 58.8802 548.52 58.4844C548.163 58.0859 547.984 57.556 547.984 56.8945V56.8477ZM548.934 56.9297C548.934 57.3646 549.023 57.7057 549.203 57.9531C549.383 58.1979 549.633 58.3203 549.953 58.3203C550.273 58.3203 550.522 58.1953 550.699 57.9453C550.879 57.6953 550.969 57.3294 550.969 56.8477C550.969 56.4206 550.876 56.082 550.691 55.832C550.509 55.582 550.26 55.457 549.945 55.457C549.635 55.457 549.389 55.5807 549.207 55.8281C549.025 56.0729 548.934 56.4401 548.934 56.9297ZM553.652 55.2344C553.962 54.875 554.354 54.6953 554.828 54.6953C555.729 54.6953 556.186 55.2096 556.199 56.2383V59H555.25V56.2734C555.25 55.9818 555.186 55.776 555.059 55.6562C554.934 55.5339 554.749 55.4727 554.504 55.4727C554.124 55.4727 553.84 55.6419 553.652 55.9805V59H552.703V53H553.652V55.2344Z" fill="#27223A"/>
<path d="M377.711 59H376.762V54.7734H377.711V59ZM376.703 53.6758C376.703 53.5299 376.749 53.4089 376.84 53.3125C376.934 53.2161 377.066 53.168 377.238 53.168C377.41 53.168 377.543 53.2161 377.637 53.3125C377.73 53.4089 377.777 53.5299 377.777 53.6758C377.777 53.819 377.73 53.9388 377.637 54.0352C377.543 54.1289 377.41 54.1758 377.238 54.1758C377.066 54.1758 376.934 54.1289 376.84 54.0352C376.749 53.9388 376.703 53.819 376.703 53.6758ZM381.117 57.8516C381.117 57.6823 381.047 57.5534 380.906 57.4648C380.768 57.3763 380.538 57.2982 380.215 57.2305C379.892 57.1628 379.622 57.0768 379.406 56.9727C378.932 56.7435 378.695 56.4115 378.695 55.9766C378.695 55.612 378.849 55.3073 379.156 55.0625C379.464 54.8177 379.854 54.6953 380.328 54.6953C380.833 54.6953 381.241 54.8203 381.551 55.0703C381.863 55.3203 382.02 55.6445 382.02 56.043H381.07C381.07 55.8607 381.003 55.7096 380.867 55.5898C380.732 55.4674 380.552 55.4062 380.328 55.4062C380.12 55.4062 379.949 55.4544 379.816 55.5508C379.686 55.6471 379.621 55.776 379.621 55.9375C379.621 56.0833 379.682 56.1966 379.805 56.2773C379.927 56.3581 380.174 56.4401 380.547 56.5234C380.919 56.6042 381.211 56.7018 381.422 56.8164C381.635 56.9284 381.793 57.0638 381.895 57.2227C381.999 57.3815 382.051 57.5742 382.051 57.8008C382.051 58.181 381.893 58.4896 381.578 58.7266C381.263 58.9609 380.85 59.0781 380.34 59.0781C379.993 59.0781 379.685 59.0156 379.414 58.8906C379.143 58.7656 378.932 58.5938 378.781 58.375C378.63 58.1562 378.555 57.9206 378.555 57.668H379.477C379.49 57.8919 379.574 58.0651 379.73 58.1875C379.887 58.3073 380.094 58.3672 380.352 58.3672C380.602 58.3672 380.792 58.3203 380.922 58.2266C381.052 58.1302 381.117 58.0052 381.117 57.8516ZM384.07 53.7461V54.7734H384.816V55.4766H384.07V57.8359C384.07 57.9974 384.102 58.1146 384.164 58.1875C384.229 58.2578 384.344 58.293 384.508 58.293C384.617 58.293 384.728 58.2799 384.84 58.2539V58.9883C384.624 59.0482 384.415 59.0781 384.215 59.0781C383.486 59.0781 383.121 58.6758 383.121 57.8711V55.4766H382.426V54.7734H383.121V53.7461H384.07ZM388.07 59C388.029 58.9193 387.992 58.7878 387.961 58.6055C387.659 58.9206 387.289 59.0781 386.852 59.0781C386.427 59.0781 386.081 58.957 385.812 58.7148C385.544 58.4727 385.41 58.1732 385.41 57.8164C385.41 57.3659 385.577 57.0208 385.91 56.7812C386.246 56.5391 386.725 56.418 387.348 56.418H387.93V56.1406C387.93 55.9219 387.868 55.7474 387.746 55.6172C387.624 55.4844 387.438 55.418 387.188 55.418C386.971 55.418 386.794 55.4727 386.656 55.582C386.518 55.6888 386.449 55.8255 386.449 55.9922H385.5C385.5 55.7604 385.577 55.5443 385.73 55.3438C385.884 55.1406 386.092 54.9818 386.355 54.8672C386.621 54.7526 386.917 54.6953 387.242 54.6953C387.737 54.6953 388.132 54.8203 388.426 55.0703C388.72 55.3177 388.871 55.6667 388.879 56.1172V58.0234C388.879 58.4036 388.932 58.707 389.039 58.9336V59H388.07ZM387.027 58.3164C387.215 58.3164 387.391 58.2708 387.555 58.1797C387.721 58.0885 387.846 57.9661 387.93 57.8125V57.0156H387.418C387.066 57.0156 386.802 57.0768 386.625 57.1992C386.448 57.3216 386.359 57.4948 386.359 57.7188C386.359 57.901 386.419 58.0469 386.539 58.1562C386.661 58.263 386.824 58.3164 387.027 58.3164ZM390.883 59H389.934V53H390.883V59ZM392.254 59V55.4766H391.609V54.7734H392.254V54.3867C392.254 53.918 392.384 53.556 392.645 53.3008C392.905 53.0456 393.27 52.918 393.738 52.918C393.905 52.918 394.082 52.9414 394.27 52.9883L394.246 53.7305C394.142 53.7096 394.021 53.6992 393.883 53.6992C393.43 53.6992 393.203 53.9323 393.203 54.3984V54.7734H394.062V55.4766H393.203V59H392.254ZM394.578 56.8477C394.578 56.4336 394.66 56.0612 394.824 55.7305C394.988 55.3971 395.219 55.1419 395.516 54.9648C395.812 54.7852 396.154 54.6953 396.539 54.6953C397.109 54.6953 397.572 54.8789 397.926 55.2461C398.283 55.6133 398.475 56.1003 398.504 56.707L398.508 56.9297C398.508 57.3464 398.427 57.7188 398.266 58.0469C398.107 58.375 397.878 58.6289 397.578 58.8086C397.281 58.9883 396.938 59.0781 396.547 59.0781C395.951 59.0781 395.473 58.8802 395.113 58.4844C394.757 58.0859 394.578 57.556 394.578 56.8945V56.8477ZM395.527 56.9297C395.527 57.3646 395.617 57.7057 395.797 57.9531C395.977 58.1979 396.227 58.3203 396.547 58.3203C396.867 58.3203 397.116 58.1953 397.293 57.9453C397.473 57.6953 397.562 57.3294 397.562 56.8477C397.562 56.4206 397.47 56.082 397.285 55.832C397.103 55.582 396.854 55.457 396.539 55.457C396.229 55.457 395.983 55.5807 395.801 55.8281C395.618 56.0729 395.527 56.4401 395.527 56.9297ZM400.191 54.7734L400.219 55.2617C400.531 54.8841 400.941 54.6953 401.449 54.6953C402.329 54.6953 402.777 55.1992 402.793 56.207V59H401.844V56.2617C401.844 55.9935 401.785 55.7956 401.668 55.668C401.553 55.5378 401.365 55.4727 401.102 55.4727C400.719 55.4727 400.434 55.6458 400.246 55.9922V59H399.297V54.7734H400.191ZM406.133 57.8516C406.133 57.6823 406.062 57.5534 405.922 57.4648C405.784 57.3763 405.553 57.2982 405.23 57.2305C404.908 57.1628 404.638 57.0768 404.422 56.9727C403.948 56.7435 403.711 56.4115 403.711 55.9766C403.711 55.612 403.865 55.3073 404.172 55.0625C404.479 54.8177 404.87 54.6953 405.344 54.6953C405.849 54.6953 406.257 54.8203 406.566 55.0703C406.879 55.3203 407.035 55.6445 407.035 56.043H406.086C406.086 55.8607 406.018 55.7096 405.883 55.5898C405.747 55.4674 405.568 55.4062 405.344 55.4062C405.135 55.4062 404.965 55.4544 404.832 55.5508C404.702 55.6471 404.637 55.776 404.637 55.9375C404.637 56.0833 404.698 56.1966 404.82 56.2773C404.943 56.3581 405.19 56.4401 405.562 56.5234C405.935 56.6042 406.227 56.7018 406.438 56.8164C406.651 56.9284 406.809 57.0638 406.91 57.2227C407.014 57.3815 407.066 57.5742 407.066 57.8008C407.066 58.181 406.909 58.4896 406.594 58.7266C406.279 58.9609 405.866 59.0781 405.355 59.0781C405.009 59.0781 404.701 59.0156 404.43 58.8906C404.159 58.7656 403.948 58.5938 403.797 58.375C403.646 58.1562 403.57 57.9206 403.57 57.668H404.492C404.505 57.8919 404.59 58.0651 404.746 58.1875C404.902 58.3073 405.109 58.3672 405.367 58.3672C405.617 58.3672 405.807 58.3203 405.938 58.2266C406.068 58.1302 406.133 58.0052 406.133 57.8516ZM407.719 56.8477C407.719 56.4336 407.801 56.0612 407.965 55.7305C408.129 55.3971 408.359 55.1419 408.656 54.9648C408.953 54.7852 409.294 54.6953 409.68 54.6953C410.25 54.6953 410.712 54.8789 411.066 55.2461C411.423 55.6133 411.616 56.1003 411.645 56.707L411.648 56.9297C411.648 57.3464 411.568 57.7188 411.406 58.0469C411.247 58.375 411.018 58.6289 410.719 58.8086C410.422 58.9883 410.078 59.0781 409.688 59.0781C409.091 59.0781 408.613 58.8802 408.254 58.4844C407.897 58.0859 407.719 57.556 407.719 56.8945V56.8477ZM408.668 56.9297C408.668 57.3646 408.758 57.7057 408.938 57.9531C409.117 58.1979 409.367 58.3203 409.688 58.3203C410.008 58.3203 410.257 58.1953 410.434 57.9453C410.613 57.6953 410.703 57.3294 410.703 56.8477C410.703 56.4206 410.611 56.082 410.426 55.832C410.243 55.582 409.995 55.457 409.68 55.457C409.37 55.457 409.124 55.5807 408.941 55.8281C408.759 56.0729 408.668 56.4401 408.668 56.9297ZM413.387 55.2344C413.697 54.875 414.089 54.6953 414.562 54.6953C415.464 54.6953 415.921 55.2096 415.934 56.2383V59H414.984V56.2734C414.984 55.9818 414.921 55.776 414.793 55.6562C414.668 55.5339 414.483 55.4727 414.238 55.4727C413.858 55.4727 413.574 55.6419 413.387 55.9805V59H412.438V53H413.387V55.2344ZM418.758 59.0781C418.156 59.0781 417.668 58.8893 417.293 58.5117C416.921 58.1315 416.734 57.6263 416.734 56.9961V56.8789C416.734 56.457 416.815 56.0807 416.977 55.75C417.141 55.4167 417.37 55.1576 417.664 54.9727C417.958 54.7878 418.286 54.6953 418.648 54.6953C419.224 54.6953 419.668 54.8789 419.98 55.2461C420.296 55.6133 420.453 56.1328 420.453 56.8047V57.1875H417.691C417.72 57.5365 417.836 57.8125 418.039 58.0156C418.245 58.2188 418.503 58.3203 418.812 58.3203C419.247 58.3203 419.602 58.1445 419.875 57.793L420.387 58.2812C420.217 58.5339 419.991 58.7305 419.707 58.8711C419.426 59.0091 419.109 59.0781 418.758 59.0781ZM418.645 55.457C418.384 55.457 418.173 55.5482 418.012 55.7305C417.853 55.9128 417.751 56.1667 417.707 56.4922H419.516V56.4219C419.495 56.1042 419.41 55.8646 419.262 55.7031C419.113 55.5391 418.908 55.457 418.645 55.457ZM423.406 55.6406C423.281 55.6198 423.152 55.6094 423.02 55.6094C422.585 55.6094 422.292 55.776 422.141 56.1094V59H421.191V54.7734H422.098L422.121 55.2461C422.35 54.8789 422.668 54.6953 423.074 54.6953C423.21 54.6953 423.322 54.7135 423.41 54.75L423.406 55.6406ZM426.219 55.6406C426.094 55.6198 425.965 55.6094 425.832 55.6094C425.397 55.6094 425.104 55.776 424.953 56.1094V59H424.004V54.7734H424.91L424.934 55.2461C425.163 54.8789 425.48 54.6953 425.887 54.6953C426.022 54.6953 426.134 54.7135 426.223 54.75L426.219 55.6406ZM428.602 59.0781C428 59.0781 427.512 58.8893 427.137 58.5117C426.764 58.1315 426.578 57.6263 426.578 56.9961V56.8789C426.578 56.457 426.659 56.0807 426.82 55.75C426.984 55.4167 427.214 55.1576 427.508 54.9727C427.802 54.7878 428.13 54.6953 428.492 54.6953C429.068 54.6953 429.512 54.8789 429.824 55.2461C430.139 55.6133 430.297 56.1328 430.297 56.8047V57.1875H427.535C427.564 57.5365 427.68 57.8125 427.883 58.0156C428.089 58.2188 428.346 58.3203 428.656 58.3203C429.091 58.3203 429.445 58.1445 429.719 57.793L430.23 58.2812C430.061 58.5339 429.835 58.7305 429.551 58.8711C429.27 59.0091 428.953 59.0781 428.602 59.0781ZM428.488 55.457C428.228 55.457 428.017 55.5482 427.855 55.7305C427.697 55.9128 427.595 56.1667 427.551 56.4922H429.359V56.4219C429.339 56.1042 429.254 55.8646 429.105 55.7031C428.957 55.5391 428.751 55.457 428.488 55.457ZM433.25 55.6406C433.125 55.6198 432.996 55.6094 432.863 55.6094C432.428 55.6094 432.135 55.776 431.984 56.1094V59H431.035V54.7734H431.941L431.965 55.2461C432.194 54.8789 432.512 54.6953 432.918 54.6953C433.053 54.6953 433.165 54.7135 433.254 54.75L433.25 55.6406ZM436.258 59C436.216 58.9193 436.18 58.7878 436.148 58.6055C435.846 58.9206 435.477 59.0781 435.039 59.0781C434.615 59.0781 434.268 58.957 434 58.7148C433.732 58.4727 433.598 58.1732 433.598 57.8164C433.598 57.3659 433.764 57.0208 434.098 56.7812C434.434 56.5391 434.913 56.418 435.535 56.418H436.117V56.1406C436.117 55.9219 436.056 55.7474 435.934 55.6172C435.811 55.4844 435.625 55.418 435.375 55.418C435.159 55.418 434.982 55.4727 434.844 55.582C434.706 55.6888 434.637 55.8255 434.637 55.9922H433.688C433.688 55.7604 433.764 55.5443 433.918 55.3438C434.072 55.1406 434.28 54.9818 434.543 54.8672C434.809 54.7526 435.104 54.6953 435.43 54.6953C435.924 54.6953 436.319 54.8203 436.613 55.0703C436.908 55.3177 437.059 55.6667 437.066 56.1172V58.0234C437.066 58.4036 437.12 58.707 437.227 58.9336V59H436.258ZM435.215 58.3164C435.402 58.3164 435.578 58.2708 435.742 58.1797C435.909 58.0885 436.034 57.9661 436.117 57.8125V57.0156H435.605C435.254 57.0156 434.99 57.0768 434.812 57.1992C434.635 57.3216 434.547 57.4948 434.547 57.7188C434.547 57.901 434.607 58.0469 434.727 58.1562C434.849 58.263 435.012 58.3164 435.215 58.3164ZM438.652 58C438.829 58 438.966 58.0508 439.062 58.1523C439.159 58.2513 439.207 58.3763 439.207 58.5273C439.207 58.6758 439.159 58.7995 439.062 58.8984C438.966 58.9948 438.829 59.043 438.652 59.043C438.483 59.043 438.349 58.9948 438.25 58.8984C438.151 58.8021 438.102 58.6784 438.102 58.5273C438.102 58.3763 438.15 58.2513 438.246 58.1523C438.342 58.0508 438.478 58 438.652 58ZM442.156 59.0781C441.555 59.0781 441.066 58.8893 440.691 58.5117C440.319 58.1315 440.133 57.6263 440.133 56.9961V56.8789C440.133 56.457 440.214 56.0807 440.375 55.75C440.539 55.4167 440.768 55.1576 441.062 54.9727C441.357 54.7878 441.685 54.6953 442.047 54.6953C442.622 54.6953 443.066 54.8789 443.379 55.2461C443.694 55.6133 443.852 56.1328 443.852 56.8047V57.1875H441.09C441.118 57.5365 441.234 57.8125 441.438 58.0156C441.643 58.2188 441.901 58.3203 442.211 58.3203C442.646 58.3203 443 58.1445 443.273 57.793L443.785 58.2812C443.616 58.5339 443.389 58.7305 443.105 58.8711C442.824 59.0091 442.508 59.0781 442.156 59.0781ZM442.043 55.457C441.783 55.457 441.572 55.5482 441.41 55.7305C441.251 55.9128 441.15 56.1667 441.105 56.4922H442.914V56.4219C442.893 56.1042 442.809 55.8646 442.66 55.7031C442.512 55.5391 442.306 55.457 442.043 55.457ZM444.414 56.8555C444.414 56.2044 444.565 55.6823 444.867 55.2891C445.169 54.8932 445.574 54.6953 446.082 54.6953C446.53 54.6953 446.892 54.8516 447.168 55.1641V53H448.117V59H447.258L447.211 58.5625C446.927 58.9062 446.548 59.0781 446.074 59.0781C445.579 59.0781 445.178 58.8789 444.871 58.4805C444.566 58.082 444.414 57.5404 444.414 56.8555ZM445.363 56.9375C445.363 57.3672 445.445 57.7031 445.609 57.9453C445.776 58.1849 446.012 58.3047 446.316 58.3047C446.704 58.3047 446.988 58.1315 447.168 57.7852V55.9805C446.993 55.6419 446.712 55.4727 446.324 55.4727C446.017 55.4727 445.78 55.5951 445.613 55.8398C445.447 56.082 445.363 56.4479 445.363 56.9375ZM451.668 58.5859C451.389 58.9141 450.993 59.0781 450.48 59.0781C450.022 59.0781 449.674 58.944 449.438 58.6758C449.203 58.4076 449.086 58.0195 449.086 57.5117V54.7734H450.035V57.5C450.035 58.0365 450.258 58.3047 450.703 58.3047C451.164 58.3047 451.475 58.1393 451.637 57.8086V54.7734H452.586V59H451.691L451.668 58.5859ZM454.145 58C454.322 58 454.458 58.0508 454.555 58.1523C454.651 58.2513 454.699 58.3763 454.699 58.5273C454.699 58.6758 454.651 58.7995 454.555 58.8984C454.458 58.9948 454.322 59.043 454.145 59.043C453.975 59.043 453.841 58.9948 453.742 58.8984C453.643 58.8021 453.594 58.6784 453.594 58.5273C453.594 58.3763 453.642 58.2513 453.738 58.1523C453.835 58.0508 453.97 58 454.145 58ZM457.648 59.0781C457.047 59.0781 456.559 58.8893 456.184 58.5117C455.811 58.1315 455.625 57.6263 455.625 56.9961V56.8789C455.625 56.457 455.706 56.0807 455.867 55.75C456.031 55.4167 456.26 55.1576 456.555 54.9727C456.849 54.7878 457.177 54.6953 457.539 54.6953C458.115 54.6953 458.559 54.8789 458.871 55.2461C459.186 55.6133 459.344 56.1328 459.344 56.8047V57.1875H456.582C456.611 57.5365 456.727 57.8125 456.93 58.0156C457.135 58.2188 457.393 58.3203 457.703 58.3203C458.138 58.3203 458.492 58.1445 458.766 57.793L459.277 58.2812C459.108 58.5339 458.882 58.7305 458.598 58.8711C458.316 59.0091 458 59.0781 457.648 59.0781ZM457.535 55.457C457.275 55.457 457.064 55.5482 456.902 55.7305C456.743 55.9128 456.642 56.1667 456.598 56.4922H458.406V56.4219C458.385 56.1042 458.301 55.8646 458.152 55.7031C458.004 55.5391 457.798 55.457 457.535 55.457ZM461.82 58.3203C462.057 58.3203 462.254 58.2513 462.41 58.1133C462.566 57.9753 462.65 57.8047 462.66 57.6016H463.555C463.544 57.8646 463.462 58.1107 463.309 58.3398C463.155 58.5664 462.947 58.7461 462.684 58.8789C462.421 59.0117 462.137 59.0781 461.832 59.0781C461.241 59.0781 460.772 58.8867 460.426 58.5039C460.079 58.1211 459.906 57.5924 459.906 56.918V56.8203C459.906 56.1771 460.078 55.6628 460.422 55.2773C460.766 54.8893 461.234 54.6953 461.828 54.6953C462.331 54.6953 462.74 54.8424 463.055 55.1367C463.372 55.4284 463.539 55.8125 463.555 56.2891H462.66C462.65 56.0469 462.566 55.8477 462.41 55.6914C462.257 55.5352 462.06 55.457 461.82 55.457C461.513 55.457 461.276 55.569 461.109 55.793C460.943 56.0143 460.858 56.3516 460.855 56.8047V56.957C460.855 57.4154 460.938 57.7578 461.102 57.9844C461.268 58.2083 461.508 58.3203 461.82 58.3203Z" fill="#27223A"/>
<a href="https://istalfonsoherrera.edu.ec/">
<rect fill="black" fill-opacity="0" x="1.21484" y="0.3125" width="87.5703" height="9.375"/>
</a>
<path d="M53.4375 56.4609H51.1016V58.2109H53.832V59H50.1133V53.3125H53.8047V54.1094H51.1016V55.6797H53.4375V56.4609ZM55.5547 59H54.6055V53H55.5547V59ZM61.8594 57.6758H59.6562L59.1953 59H58.168L60.3164 53.3125H61.2031L63.3555 59H62.3242L61.8594 57.6758ZM59.9336 56.8789H61.582L60.7578 54.5195L59.9336 56.8789ZM61.0547 51.7891H62.1367L61.0547 52.9727H60.293L61.0547 51.7891ZM64.6055 54.7734L64.6328 55.2617C64.9453 54.8841 65.3555 54.6953 65.8633 54.6953C66.7435 54.6953 67.1914 55.1992 67.207 56.207V59H66.2578V56.2617C66.2578 55.9935 66.1992 55.7956 66.082 55.668C65.9674 55.5378 65.7786 55.4727 65.5156 55.4727C65.1328 55.4727 64.8477 55.6458 64.6602 55.9922V59H63.7109V54.7734H64.6055ZM68.0117 56.8555C68.0117 56.1992 68.1654 55.6758 68.4727 55.2852C68.7826 54.8919 69.1927 54.6953 69.7031 54.6953C70.1849 54.6953 70.5638 54.8633 70.8398 55.1992L70.8828 54.7734H71.7383V58.8711C71.7383 59.4258 71.5651 59.8633 71.2188 60.1836C70.875 60.5039 70.4102 60.6641 69.8242 60.6641C69.5143 60.6641 69.2109 60.599 68.9141 60.4688C68.6198 60.3411 68.3958 60.1732 68.2422 59.9648L68.6914 59.3945C68.9831 59.7409 69.3424 59.9141 69.7695 59.9141C70.0846 59.9141 70.3333 59.8281 70.5156 59.6562C70.6979 59.487 70.7891 59.237 70.7891 58.9062V58.6211C70.5156 58.9258 70.151 59.0781 69.6953 59.0781C69.2005 59.0781 68.7956 58.8815 68.4805 58.4883C68.168 58.0951 68.0117 57.5508 68.0117 56.8555ZM68.957 56.9375C68.957 57.362 69.043 57.6966 69.2148 57.9414C69.3893 58.1836 69.6302 58.3047 69.9375 58.3047C70.3203 58.3047 70.6042 58.1406 70.7891 57.8125V55.9531C70.6094 55.6328 70.3281 55.4727 69.9453 55.4727C69.6328 55.4727 69.3893 55.5964 69.2148 55.8438C69.043 56.0911 68.957 56.4557 68.957 56.9375ZM74.5781 59.0781C73.9766 59.0781 73.4883 58.8893 73.1133 58.5117C72.7409 58.1315 72.5547 57.6263 72.5547 56.9961V56.8789C72.5547 56.457 72.6354 56.0807 72.7969 55.75C72.9609 55.4167 73.1901 55.1576 73.4844 54.9727C73.7786 54.7878 74.1068 54.6953 74.4688 54.6953C75.0443 54.6953 75.4883 54.8789 75.8008 55.2461C76.1159 55.6133 76.2734 56.1328 76.2734 56.8047V57.1875H73.5117C73.5404 57.5365 73.6562 57.8125 73.8594 58.0156C74.0651 58.2188 74.3229 58.3203 74.6328 58.3203C75.0677 58.3203 75.4219 58.1445 75.6953 57.793L76.207 58.2812C76.0378 58.5339 75.8112 58.7305 75.5273 58.8711C75.2461 59.0091 74.9297 59.0781 74.5781 59.0781ZM74.4648 55.457C74.2044 55.457 73.9935 55.5482 73.832 55.7305C73.6732 55.9128 73.5716 56.1667 73.5273 56.4922H75.3359V56.4219C75.3151 56.1042 75.2305 55.8646 75.082 55.7031C74.9336 55.5391 74.7279 55.457 74.4648 55.457ZM78.0234 59H77.0742V53H78.0234V59ZM79.1953 60.2812L78.6836 59.9766C78.8346 59.7396 78.9375 59.5326 78.9922 59.3555C79.0495 59.181 79.0794 59.0026 79.082 58.8203V58.082H79.9375L79.9336 58.7656C79.931 59.0417 79.8607 59.3177 79.7227 59.5938C79.5872 59.8724 79.4115 60.1016 79.1953 60.2812ZM85.1797 57.8516C85.1797 57.6823 85.1094 57.5534 84.9688 57.4648C84.8307 57.3763 84.6003 57.2982 84.2773 57.2305C83.9544 57.1628 83.6849 57.0768 83.4688 56.9727C82.9948 56.7435 82.7578 56.4115 82.7578 55.9766C82.7578 55.612 82.9115 55.3073 83.2188 55.0625C83.526 54.8177 83.9167 54.6953 84.3906 54.6953C84.8958 54.6953 85.3034 54.8203 85.6133 55.0703C85.9258 55.3203 86.082 55.6445 86.082 56.043H85.1328C85.1328 55.8607 85.0651 55.7096 84.9297 55.5898C84.7943 55.4674 84.6146 55.4062 84.3906 55.4062C84.1823 55.4062 84.0117 55.4544 83.8789 55.5508C83.7487 55.6471 83.6836 55.776 83.6836 55.9375C83.6836 56.0833 83.7448 56.1966 83.8672 56.2773C83.9896 56.3581 84.237 56.4401 84.6094 56.5234C84.9818 56.6042 85.2734 56.7018 85.4844 56.8164C85.6979 56.9284 85.8555 57.0638 85.957 57.2227C86.0612 57.3815 86.1133 57.5742 86.1133 57.8008C86.1133 58.181 85.9557 58.4896 85.6406 58.7266C85.3255 58.9609 84.9128 59.0781 84.4023 59.0781C84.056 59.0781 83.7474 59.0156 83.4766 58.8906C83.2057 58.7656 82.9948 58.5938 82.8438 58.375C82.6927 58.1562 82.6172 57.9206 82.6172 57.668H83.5391C83.5521 57.8919 83.6367 58.0651 83.793 58.1875C83.9492 58.3073 84.1562 58.3672 84.4141 58.3672C84.6641 58.3672 84.8542 58.3203 84.9844 58.2266C85.1146 58.1302 85.1797 58.0052 85.1797 57.8516ZM88.8047 59.0781C88.2031 59.0781 87.7148 58.8893 87.3398 58.5117C86.9674 58.1315 86.7812 57.6263 86.7812 56.9961V56.8789C86.7812 56.457 86.862 56.0807 87.0234 55.75C87.1875 55.4167 87.4167 55.1576 87.7109 54.9727C88.0052 54.7878 88.3333 54.6953 88.6953 54.6953C89.2708 54.6953 89.7148 54.8789 90.0273 55.2461C90.3424 55.6133 90.5 56.1328 90.5 56.8047V57.1875H87.7383C87.7669 57.5365 87.8828 57.8125 88.0859 58.0156C88.2917 58.2188 88.5495 58.3203 88.8594 58.3203C89.2943 58.3203 89.6484 58.1445 89.9219 57.793L90.4336 58.2812C90.2643 58.5339 90.0378 58.7305 89.7539 58.8711C89.4727 59.0091 89.1562 59.0781 88.8047 59.0781ZM88.6914 55.457C88.431 55.457 88.2201 55.5482 88.0586 55.7305C87.8997 55.9128 87.7982 56.1667 87.7539 56.4922H89.5625V56.4219C89.5417 56.1042 89.457 55.8646 89.3086 55.7031C89.1602 55.5391 88.9544 55.457 88.6914 55.457ZM92.9766 58.3203C93.2135 58.3203 93.4102 58.2513 93.5664 58.1133C93.7227 57.9753 93.806 57.8047 93.8164 57.6016H94.7109C94.7005 57.8646 94.6185 58.1107 94.4648 58.3398C94.3112 58.5664 94.1029 58.7461 93.8398 58.8789C93.5768 59.0117 93.293 59.0781 92.9883 59.0781C92.3971 59.0781 91.9284 58.8867 91.582 58.5039C91.2357 58.1211 91.0625 57.5924 91.0625 56.918V56.8203C91.0625 56.1771 91.2344 55.6628 91.5781 55.2773C91.9219 54.8893 92.3906 54.6953 92.9844 54.6953C93.487 54.6953 93.8958 54.8424 94.2109 55.1367C94.5286 55.4284 94.6953 55.8125 94.7109 56.2891H93.8164C93.806 56.0469 93.7227 55.8477 93.5664 55.6914C93.4128 55.5352 93.2161 55.457 92.9766 55.457C92.6693 55.457 92.4323 55.569 92.2656 55.793C92.099 56.0143 92.0143 56.3516 92.0117 56.8047V56.957C92.0117 57.4154 92.0938 57.7578 92.2578 57.9844C92.4245 58.2083 92.6641 58.3203 92.9766 58.3203ZM96.6172 53.7461V54.7734H97.3633V55.4766H96.6172V57.8359C96.6172 57.9974 96.6484 58.1146 96.7109 58.1875C96.776 58.2578 96.8906 58.293 97.0547 58.293C97.1641 58.293 97.2747 58.2799 97.3867 58.2539V58.9883C97.1706 59.0482 96.9622 59.0781 96.7617 59.0781C96.0326 59.0781 95.668 58.6758 95.668 57.8711V55.4766H94.9727V54.7734H95.668V53.7461H96.6172ZM97.7969 56.8477C97.7969 56.4336 97.8789 56.0612 98.043 55.7305C98.207 55.3971 98.4375 55.1419 98.7344 54.9648C99.0312 54.7852 99.3724 54.6953 99.7578 54.6953C100.328 54.6953 100.79 54.8789 101.145 55.2461C101.501 55.6133 101.694 56.1003 101.723 56.707L101.727 56.9297C101.727 57.3464 101.646 57.7188 101.484 58.0469C101.326 58.375 101.096 58.6289 100.797 58.8086C100.5 58.9883 100.156 59.0781 99.7656 59.0781C99.1693 59.0781 98.6914 58.8802 98.332 58.4844C97.9753 58.0859 97.7969 57.556 97.7969 56.8945V56.8477ZM98.7461 56.9297C98.7461 57.3646 98.8359 57.7057 99.0156 57.9531C99.1953 58.1979 99.4453 58.3203 99.7656 58.3203C100.086 58.3203 100.335 58.1953 100.512 57.9453C100.691 57.6953 100.781 57.3294 100.781 56.8477C100.781 56.4206 100.689 56.082 100.504 55.832C100.322 55.582 100.073 55.457 99.7578 55.457C99.4479 55.457 99.2018 55.5807 99.0195 55.8281C98.8372 56.0729 98.7461 56.4401 98.7461 56.9297ZM104.742 55.6406C104.617 55.6198 104.488 55.6094 104.355 55.6094C103.921 55.6094 103.628 55.776 103.477 56.1094V59H102.527V54.7734H103.434L103.457 55.2461C103.686 54.8789 104.004 54.6953 104.41 54.6953C104.546 54.6953 104.658 54.7135 104.746 54.75L104.742 55.6406ZM111.945 56.3047C111.945 56.8438 111.859 57.3112 111.688 57.707C111.518 58.1003 111.28 58.4128 110.973 58.6445L111.949 59.4062L111.309 59.9844L110.098 59.0273C109.939 59.0612 109.768 59.0781 109.586 59.0781C109.128 59.0781 108.717 58.9661 108.355 58.7422C107.996 58.5156 107.717 58.194 107.52 57.7773C107.324 57.3607 107.225 56.8802 107.223 56.3359V56.0156C107.223 55.4609 107.32 54.9714 107.516 54.5469C107.714 54.1224 107.991 53.7982 108.348 53.5742C108.707 53.3477 109.117 53.2344 109.578 53.2344C110.047 53.2344 110.46 53.3464 110.816 53.5703C111.176 53.7917 111.453 54.112 111.648 54.5312C111.844 54.9479 111.943 55.4336 111.945 55.9883V56.3047ZM110.953 56.0078C110.953 55.3672 110.833 54.8815 110.594 54.5508C110.354 54.2201 110.016 54.0547 109.578 54.0547C109.154 54.0547 108.82 54.2227 108.578 54.5586C108.339 54.8919 108.216 55.3633 108.211 55.9727V56.3047C108.211 56.9193 108.331 57.3997 108.57 57.7461C108.812 58.0924 109.151 58.2656 109.586 58.2656C110.026 58.2656 110.363 58.099 110.598 57.7656C110.835 57.4323 110.953 56.9453 110.953 56.3047V56.0078ZM115.418 58.5859C115.139 58.9141 114.743 59.0781 114.23 59.0781C113.772 59.0781 113.424 58.944 113.188 58.6758C112.953 58.4076 112.836 58.0195 112.836 57.5117V54.7734H113.785V57.5C113.785 58.0365 114.008 58.3047 114.453 58.3047C114.914 58.3047 115.225 58.1393 115.387 57.8086V54.7734H116.336V59H115.441L115.418 58.5859ZM119.164 59.0781C118.562 59.0781 118.074 58.8893 117.699 58.5117C117.327 58.1315 117.141 57.6263 117.141 56.9961V56.8789C117.141 56.457 117.221 56.0807 117.383 55.75C117.547 55.4167 117.776 55.1576 118.07 54.9727C118.365 54.7878 118.693 54.6953 119.055 54.6953C119.63 54.6953 120.074 54.8789 120.387 55.2461C120.702 55.6133 120.859 56.1328 120.859 56.8047V57.1875H118.098C118.126 57.5365 118.242 57.8125 118.445 58.0156C118.651 58.2188 118.909 58.3203 119.219 58.3203C119.654 58.3203 120.008 58.1445 120.281 57.793L120.793 58.2812C120.624 58.5339 120.397 58.7305 120.113 58.8711C119.832 59.0091 119.516 59.0781 119.164 59.0781ZM119.051 55.457C118.79 55.457 118.579 55.5482 118.418 55.7305C118.259 55.9128 118.158 56.1667 118.113 56.4922H119.922V56.4219C119.901 56.1042 119.816 55.8646 119.668 55.7031C119.52 55.5391 119.314 55.457 119.051 55.457ZM125.309 56.9297C125.309 57.5859 125.161 58.1081 124.867 58.4961C124.576 58.8841 124.173 59.0781 123.66 59.0781C123.165 59.0781 122.78 58.8997 122.504 58.543L122.457 59H121.598V53H122.547V55.1797C122.82 54.8568 123.189 54.6953 123.652 54.6953C124.168 54.6953 124.573 54.8867 124.867 55.2695C125.161 55.6523 125.309 56.1875 125.309 56.875V56.9297ZM124.359 56.8477C124.359 56.3893 124.279 56.0456 124.117 55.8164C123.956 55.5872 123.721 55.4727 123.414 55.4727C123.003 55.4727 122.714 55.6523 122.547 56.0117V57.7539C122.716 58.1211 123.008 58.3047 123.422 58.3047C123.719 58.3047 123.948 58.194 124.109 57.9727C124.271 57.7513 124.354 57.4167 124.359 56.9688V56.8477ZM128.32 55.6406C128.195 55.6198 128.066 55.6094 127.934 55.6094C127.499 55.6094 127.206 55.776 127.055 56.1094V59H126.105V54.7734H127.012L127.035 55.2461C127.264 54.8789 127.582 54.6953 127.988 54.6953C128.124 54.6953 128.236 54.7135 128.324 54.75L128.32 55.6406ZM131.328 59C131.286 58.9193 131.25 58.7878 131.219 58.6055C130.917 58.9206 130.547 59.0781 130.109 59.0781C129.685 59.0781 129.339 58.957 129.07 58.7148C128.802 58.4727 128.668 58.1732 128.668 57.8164C128.668 57.3659 128.835 57.0208 129.168 56.7812C129.504 56.5391 129.983 56.418 130.605 56.418H131.188V56.1406C131.188 55.9219 131.126 55.7474 131.004 55.6172C130.882 55.4844 130.695 55.418 130.445 55.418C130.229 55.418 130.052 55.4727 129.914 55.582C129.776 55.6888 129.707 55.8255 129.707 55.9922H128.758C128.758 55.7604 128.835 55.5443 128.988 55.3438C129.142 55.1406 129.35 54.9818 129.613 54.8672C129.879 54.7526 130.174 54.6953 130.5 54.6953C130.995 54.6953 131.389 54.8203 131.684 55.0703C131.978 55.3177 132.129 55.6667 132.137 56.1172V58.0234C132.137 58.4036 132.19 58.707 132.297 58.9336V59H131.328ZM130.285 58.3164C130.473 58.3164 130.648 58.2708 130.812 58.1797C130.979 58.0885 131.104 57.9661 131.188 57.8125V57.0156H130.676C130.324 57.0156 130.06 57.0768 129.883 57.1992C129.706 57.3216 129.617 57.4948 129.617 57.7188C129.617 57.901 129.677 58.0469 129.797 58.1562C129.919 58.263 130.082 58.3164 130.285 58.3164ZM132.953 56.8555C132.953 56.2044 133.104 55.6823 133.406 55.2891C133.708 54.8932 134.113 54.6953 134.621 54.6953C135.069 54.6953 135.431 54.8516 135.707 55.1641V53H136.656V59H135.797L135.75 58.5625C135.466 58.9062 135.087 59.0781 134.613 59.0781C134.118 59.0781 133.717 58.8789 133.41 58.4805C133.105 58.082 132.953 57.5404 132.953 56.8555ZM133.902 56.9375C133.902 57.3672 133.984 57.7031 134.148 57.9453C134.315 58.1849 134.551 58.3047 134.855 58.3047C135.243 58.3047 135.527 58.1315 135.707 57.7852V55.9805C135.533 55.6419 135.251 55.4727 134.863 55.4727C134.556 55.4727 134.319 55.5951 134.152 55.8398C133.986 56.082 133.902 56.4479 133.902 56.9375ZM140.172 59C140.13 58.9193 140.094 58.7878 140.062 58.6055C139.76 58.9206 139.391 59.0781 138.953 59.0781C138.529 59.0781 138.182 58.957 137.914 58.7148C137.646 58.4727 137.512 58.1732 137.512 57.8164C137.512 57.3659 137.678 57.0208 138.012 56.7812C138.348 56.5391 138.827 56.418 139.449 56.418H140.031V56.1406C140.031 55.9219 139.97 55.7474 139.848 55.6172C139.725 55.4844 139.539 55.418 139.289 55.418C139.073 55.418 138.896 55.4727 138.758 55.582C138.62 55.6888 138.551 55.8255 138.551 55.9922H137.602C137.602 55.7604 137.678 55.5443 137.832 55.3438C137.986 55.1406 138.194 54.9818 138.457 54.8672C138.723 54.7526 139.018 54.6953 139.344 54.6953C139.839 54.6953 140.233 54.8203 140.527 55.0703C140.822 55.3177 140.973 55.6667 140.98 56.1172V58.0234C140.98 58.4036 141.034 58.707 141.141 58.9336V59H140.172ZM139.129 58.3164C139.316 58.3164 139.492 58.2708 139.656 58.1797C139.823 58.0885 139.948 57.9661 140.031 57.8125V57.0156H139.52C139.168 57.0156 138.904 57.0768 138.727 57.1992C138.549 57.3216 138.461 57.4948 138.461 57.7188C138.461 57.901 138.521 58.0469 138.641 58.1562C138.763 58.263 138.926 58.3164 139.129 58.3164ZM148.598 56.3047C148.598 56.862 148.501 57.3516 148.309 57.7734C148.116 58.1927 147.84 58.5156 147.48 58.7422C147.124 58.9661 146.712 59.0781 146.246 59.0781C145.785 59.0781 145.374 58.9661 145.012 58.7422C144.652 58.5156 144.374 58.194 144.176 57.7773C143.98 57.3607 143.882 56.8802 143.879 56.3359V56.0156C143.879 55.4609 143.977 54.9714 144.172 54.5469C144.37 54.1224 144.647 53.7982 145.004 53.5742C145.363 53.3477 145.775 53.2344 146.238 53.2344C146.702 53.2344 147.112 53.3464 147.469 53.5703C147.828 53.7917 148.105 54.112 148.301 54.5312C148.496 54.9479 148.595 55.4336 148.598 55.9883V56.3047ZM147.609 56.0078C147.609 55.3776 147.49 54.8945 147.25 54.5586C147.013 54.2227 146.676 54.0547 146.238 54.0547C145.811 54.0547 145.477 54.2227 145.234 54.5586C144.995 54.8919 144.872 55.3646 144.867 55.9766V56.3047C144.867 56.9297 144.988 57.4128 145.23 57.7539C145.475 58.0951 145.814 58.2656 146.246 58.2656C146.684 58.2656 147.02 58.099 147.254 57.7656C147.491 57.4323 147.609 56.9453 147.609 56.3047V56.0078ZM151.859 57.8516C151.859 57.6823 151.789 57.5534 151.648 57.4648C151.51 57.3763 151.28 57.2982 150.957 57.2305C150.634 57.1628 150.365 57.0768 150.148 56.9727C149.674 56.7435 149.438 56.4115 149.438 55.9766C149.438 55.612 149.591 55.3073 149.898 55.0625C150.206 54.8177 150.596 54.6953 151.07 54.6953C151.576 54.6953 151.983 54.8203 152.293 55.0703C152.605 55.3203 152.762 55.6445 152.762 56.043H151.812C151.812 55.8607 151.745 55.7096 151.609 55.5898C151.474 55.4674 151.294 55.4062 151.07 55.4062C150.862 55.4062 150.691 55.4544 150.559 55.5508C150.428 55.6471 150.363 55.776 150.363 55.9375C150.363 56.0833 150.424 56.1966 150.547 56.2773C150.669 56.3581 150.917 56.4401 151.289 56.5234C151.661 56.6042 151.953 56.7018 152.164 56.8164C152.378 56.9284 152.535 57.0638 152.637 57.2227C152.741 57.3815 152.793 57.5742 152.793 57.8008C152.793 58.181 152.635 58.4896 152.32 58.7266C152.005 58.9609 151.592 59.0781 151.082 59.0781C150.736 59.0781 150.427 59.0156 150.156 58.8906C149.885 58.7656 149.674 58.5938 149.523 58.375C149.372 58.1562 149.297 57.9206 149.297 57.668H150.219C150.232 57.8919 150.316 58.0651 150.473 58.1875C150.629 58.3073 150.836 58.3672 151.094 58.3672C151.344 58.3672 151.534 58.3203 151.664 58.2266C151.794 58.1302 151.859 58.0052 151.859 57.8516ZM155.359 58.3203C155.596 58.3203 155.793 58.2513 155.949 58.1133C156.105 57.9753 156.189 57.8047 156.199 57.6016H157.094C157.083 57.8646 157.001 58.1107 156.848 58.3398C156.694 58.5664 156.486 58.7461 156.223 58.8789C155.96 59.0117 155.676 59.0781 155.371 59.0781C154.78 59.0781 154.311 58.8867 153.965 58.5039C153.618 58.1211 153.445 57.5924 153.445 56.918V56.8203C153.445 56.1771 153.617 55.6628 153.961 55.2773C154.305 54.8893 154.773 54.6953 155.367 54.6953C155.87 54.6953 156.279 54.8424 156.594 55.1367C156.911 55.4284 157.078 55.8125 157.094 56.2891H156.199C156.189 56.0469 156.105 55.8477 155.949 55.6914C155.796 55.5352 155.599 55.457 155.359 55.457C155.052 55.457 154.815 55.569 154.648 55.793C154.482 56.0143 154.397 56.3516 154.395 56.8047V56.957C154.395 57.4154 154.477 57.7578 154.641 57.9844C154.807 58.2083 155.047 58.3203 155.359 58.3203ZM160.371 58.5859C160.092 58.9141 159.697 59.0781 159.184 59.0781C158.725 59.0781 158.378 58.944 158.141 58.6758C157.906 58.4076 157.789 58.0195 157.789 57.5117V54.7734H158.738V57.5C158.738 58.0365 158.961 58.3047 159.406 58.3047C159.867 58.3047 160.178 58.1393 160.34 57.8086V54.7734H161.289V59H160.395L160.371 58.5859ZM164.469 55.6406C164.344 55.6198 164.215 55.6094 164.082 55.6094C163.647 55.6094 163.354 55.776 163.203 56.1094V59H162.254V54.7734H163.16L163.184 55.2461C163.413 54.8789 163.73 54.6953 164.137 54.6953C164.272 54.6953 164.384 54.7135 164.473 54.75L164.469 55.6406ZM167.477 59C167.435 58.9193 167.398 58.7878 167.367 58.6055C167.065 58.9206 166.695 59.0781 166.258 59.0781C165.833 59.0781 165.487 58.957 165.219 58.7148C164.951 58.4727 164.816 58.1732 164.816 57.8164C164.816 57.3659 164.983 57.0208 165.316 56.7812C165.652 56.5391 166.132 56.418 166.754 56.418H167.336V56.1406C167.336 55.9219 167.275 55.7474 167.152 55.6172C167.03 55.4844 166.844 55.418 166.594 55.418C166.378 55.418 166.201 55.4727 166.062 55.582C165.924 55.6888 165.855 55.8255 165.855 55.9922H164.906C164.906 55.7604 164.983 55.5443 165.137 55.3438C165.29 55.1406 165.499 54.9818 165.762 54.8672C166.027 54.7526 166.323 54.6953 166.648 54.6953C167.143 54.6953 167.538 54.8203 167.832 55.0703C168.126 55.3177 168.277 55.6667 168.285 56.1172V58.0234C168.285 58.4036 168.339 58.707 168.445 58.9336V59H167.477ZM166.434 58.3164C166.621 58.3164 166.797 58.2708 166.961 58.1797C167.128 58.0885 167.253 57.9661 167.336 57.8125V57.0156H166.824C166.473 57.0156 166.208 57.0768 166.031 57.1992C165.854 57.3216 165.766 57.4948 165.766 57.7188C165.766 57.901 165.826 58.0469 165.945 58.1562C166.068 58.263 166.23 58.3164 166.434 58.3164ZM169.414 60.2812L168.902 59.9766C169.053 59.7396 169.156 59.5326 169.211 59.3555C169.268 59.181 169.298 59.0026 169.301 58.8203V58.082H170.156L170.152 58.7656C170.15 59.0417 170.079 59.3177 169.941 59.5938C169.806 59.8724 169.63 60.1016 169.414 60.2812ZM174.402 57.1875L173.98 57.6211V59H173.031V53H173.98V56.4609L174.277 56.0898L175.445 54.7734H176.586L175.016 56.5352L176.754 59H175.656L174.402 57.1875ZM178.102 54.7734L178.129 55.2148C178.426 54.8685 178.832 54.6953 179.348 54.6953C179.913 54.6953 180.299 54.9115 180.508 55.3438C180.815 54.9115 181.247 54.6953 181.805 54.6953C182.271 54.6953 182.617 54.8242 182.844 55.082C183.073 55.3398 183.19 55.7201 183.195 56.2227V59H182.246V56.25C182.246 55.9818 182.188 55.7852 182.07 55.6602C181.953 55.5352 181.759 55.4727 181.488 55.4727C181.272 55.4727 181.095 55.5312 180.957 55.6484C180.822 55.763 180.727 55.9141 180.672 56.1016L180.676 59H179.727V56.2188C179.714 55.7214 179.46 55.4727 178.965 55.4727C178.585 55.4727 178.315 55.6276 178.156 55.9375V59H177.207V54.7734H178.102ZM187.199 55.7227H187.777C188.069 55.7201 188.299 55.6445 188.469 55.4961C188.641 55.3477 188.727 55.1328 188.727 54.8516C188.727 54.5807 188.655 54.3711 188.512 54.2227C188.371 54.0716 188.155 53.9961 187.863 53.9961C187.608 53.9961 187.398 54.0703 187.234 54.2188C187.07 54.3646 186.988 54.556 186.988 54.793H186.039C186.039 54.5013 186.116 54.2357 186.27 53.9961C186.426 53.7565 186.642 53.5703 186.918 53.4375C187.197 53.3021 187.508 53.2344 187.852 53.2344C188.419 53.2344 188.865 53.3776 189.188 53.6641C189.513 53.9479 189.676 54.3438 189.676 54.8516C189.676 55.1068 189.594 55.3477 189.43 55.5742C189.268 55.7982 189.059 55.9674 188.801 56.082C189.113 56.1888 189.35 56.3568 189.512 56.5859C189.676 56.8151 189.758 57.0885 189.758 57.4062C189.758 57.9167 189.582 58.3229 189.23 58.625C188.882 58.9271 188.422 59.0781 187.852 59.0781C187.305 59.0781 186.857 58.9323 186.508 58.6406C186.159 58.349 185.984 57.9609 185.984 57.4766H186.934C186.934 57.7266 187.017 57.9297 187.184 58.0859C187.353 58.2422 187.579 58.3203 187.863 58.3203C188.158 58.3203 188.389 58.2422 188.559 58.0859C188.728 57.9297 188.812 57.7031 188.812 57.4062C188.812 57.1068 188.724 56.8763 188.547 56.7148C188.37 56.5534 188.107 56.4727 187.758 56.4727H187.199V55.7227ZM190.844 60.2812L190.332 59.9766C190.483 59.7396 190.586 59.5326 190.641 59.3555C190.698 59.181 190.728 59.0026 190.73 58.8203V58.082H191.586L191.582 58.7656C191.579 59.0417 191.509 59.3177 191.371 59.5938C191.236 59.8724 191.06 60.1016 190.844 60.2812ZM195.949 57.7969L196.844 54.7734H197.824L196.359 59H195.535L194.059 54.7734H195.043L195.949 57.7969ZM199.441 59H198.492V54.7734H199.441V59ZM199.262 53.0273H200.344L199.262 54.2109H198.5L199.262 53.0273ZM203.047 59C203.005 58.9193 202.969 58.7878 202.938 58.6055C202.635 58.9206 202.266 59.0781 201.828 59.0781C201.404 59.0781 201.057 58.957 200.789 58.7148C200.521 58.4727 200.387 58.1732 200.387 57.8164C200.387 57.3659 200.553 57.0208 200.887 56.7812C201.223 56.5391 201.702 56.418 202.324 56.418H202.906V56.1406C202.906 55.9219 202.845 55.7474 202.723 55.6172C202.6 55.4844 202.414 55.418 202.164 55.418C201.948 55.418 201.771 55.4727 201.633 55.582C201.495 55.6888 201.426 55.8255 201.426 55.9922H200.477C200.477 55.7604 200.553 55.5443 200.707 55.3438C200.861 55.1406 201.069 54.9818 201.332 54.8672C201.598 54.7526 201.893 54.6953 202.219 54.6953C202.714 54.6953 203.108 54.8203 203.402 55.0703C203.697 55.3177 203.848 55.6667 203.855 56.1172V58.0234C203.855 58.4036 203.909 58.707 204.016 58.9336V59H203.047ZM202.004 58.3164C202.191 58.3164 202.367 58.2708 202.531 58.1797C202.698 58.0885 202.823 57.9661 202.906 57.8125V57.0156H202.395C202.043 57.0156 201.779 57.0768 201.602 57.1992C201.424 57.3216 201.336 57.4948 201.336 57.7188C201.336 57.901 201.396 58.0469 201.516 58.1562C201.638 58.263 201.801 58.3164 202.004 58.3164ZM209.367 59C209.326 58.9193 209.289 58.7878 209.258 58.6055C208.956 58.9206 208.586 59.0781 208.148 59.0781C207.724 59.0781 207.378 58.957 207.109 58.7148C206.841 58.4727 206.707 58.1732 206.707 57.8164C206.707 57.3659 206.874 57.0208 207.207 56.7812C207.543 56.5391 208.022 56.418 208.645 56.418H209.227V56.1406C209.227 55.9219 209.165 55.7474 209.043 55.6172C208.921 55.4844 208.734 55.418 208.484 55.418C208.268 55.418 208.091 55.4727 207.953 55.582C207.815 55.6888 207.746 55.8255 207.746 55.9922H206.797C206.797 55.7604 206.874 55.5443 207.027 55.3438C207.181 55.1406 207.389 54.9818 207.652 54.8672C207.918 54.7526 208.214 54.6953 208.539 54.6953C209.034 54.6953 209.428 54.8203 209.723 55.0703C210.017 55.3177 210.168 55.6667 210.176 56.1172V58.0234C210.176 58.4036 210.229 58.707 210.336 58.9336V59H209.367ZM208.324 58.3164C208.512 58.3164 208.688 58.2708 208.852 58.1797C209.018 58.0885 209.143 57.9661 209.227 57.8125V57.0156H208.715C208.363 57.0156 208.099 57.0768 207.922 57.1992C207.745 57.3216 207.656 57.4948 207.656 57.7188C207.656 57.901 207.716 58.0469 207.836 58.1562C207.958 58.263 208.121 58.3164 208.324 58.3164ZM213.254 59V53.3125H215.203C215.846 53.3125 216.336 53.4414 216.672 53.6992C217.008 53.957 217.176 54.3411 217.176 54.8516C217.176 55.112 217.105 55.3464 216.965 55.5547C216.824 55.763 216.618 55.9245 216.348 56.0391C216.655 56.1224 216.892 56.2799 217.059 56.5117C217.228 56.7409 217.312 57.0169 217.312 57.3398C217.312 57.8737 217.141 58.2839 216.797 58.5703C216.456 58.8568 215.966 59 215.328 59H213.254ZM214.242 56.4336V58.2109H215.34C215.65 58.2109 215.892 58.1341 216.066 57.9805C216.241 57.8268 216.328 57.6133 216.328 57.3398C216.328 56.7487 216.026 56.4466 215.422 56.4336H214.242ZM214.242 55.707H215.211C215.518 55.707 215.758 55.638 215.93 55.5C216.104 55.3594 216.191 55.1615 216.191 54.9062C216.191 54.625 216.111 54.4219 215.949 54.2969C215.79 54.1719 215.542 54.1094 215.203 54.1094H214.242V55.707ZM218.031 56.8477C218.031 56.4336 218.113 56.0612 218.277 55.7305C218.441 55.3971 218.672 55.1419 218.969 54.9648C219.266 54.7852 219.607 54.6953 219.992 54.6953C220.562 54.6953 221.025 54.8789 221.379 55.2461C221.736 55.6133 221.928 56.1003 221.957 56.707L221.961 56.9297C221.961 57.3464 221.88 57.7188 221.719 58.0469C221.56 58.375 221.331 58.6289 221.031 58.8086C220.734 58.9883 220.391 59.0781 220 59.0781C219.404 59.0781 218.926 58.8802 218.566 58.4844C218.21 58.0859 218.031 57.556 218.031 56.8945V56.8477ZM218.98 56.9297C218.98 57.3646 219.07 57.7057 219.25 57.9531C219.43 58.1979 219.68 58.3203 220 58.3203C220.32 58.3203 220.569 58.1953 220.746 57.9453C220.926 57.6953 221.016 57.3294 221.016 56.8477C221.016 56.4206 220.923 56.082 220.738 55.832C220.556 55.582 220.307 55.457 219.992 55.457C219.682 55.457 219.436 55.5807 219.254 55.8281C219.072 56.0729 218.98 56.4401 218.98 56.9297ZM223.773 59H222.824V53H223.773V59ZM225.832 59H224.883V54.7734H225.832V59ZM225.652 53.0273H226.734L225.652 54.2109H224.891L225.652 53.0273ZM228.402 57.7969L229.297 54.7734H230.277L228.812 59H227.988L226.512 54.7734H227.496L228.402 57.7969ZM233.336 59C233.294 58.9193 233.258 58.7878 233.227 58.6055C232.924 58.9206 232.555 59.0781 232.117 59.0781C231.693 59.0781 231.346 58.957 231.078 58.7148C230.81 58.4727 230.676 58.1732 230.676 57.8164C230.676 57.3659 230.842 57.0208 231.176 56.7812C231.512 56.5391 231.991 56.418 232.613 56.418H233.195V56.1406C233.195 55.9219 233.134 55.7474 233.012 55.6172C232.889 55.4844 232.703 55.418 232.453 55.418C232.237 55.418 232.06 55.4727 231.922 55.582C231.784 55.6888 231.715 55.8255 231.715 55.9922H230.766C230.766 55.7604 230.842 55.5443 230.996 55.3438C231.15 55.1406 231.358 54.9818 231.621 54.8672C231.887 54.7526 232.182 54.6953 232.508 54.6953C233.003 54.6953 233.397 54.8203 233.691 55.0703C233.986 55.3177 234.137 55.6667 234.145 56.1172V58.0234C234.145 58.4036 234.198 58.707 234.305 58.9336V59H233.336ZM232.293 58.3164C232.48 58.3164 232.656 58.2708 232.82 58.1797C232.987 58.0885 233.112 57.9661 233.195 57.8125V57.0156H232.684C232.332 57.0156 232.068 57.0768 231.891 57.1992C231.714 57.3216 231.625 57.4948 231.625 57.7188C231.625 57.901 231.685 58.0469 231.805 58.1562C231.927 58.263 232.09 58.3164 232.293 58.3164ZM237.352 55.6406C237.227 55.6198 237.098 55.6094 236.965 55.6094C236.53 55.6094 236.237 55.776 236.086 56.1094V59H235.137V54.7734H236.043L236.066 55.2461C236.296 54.8789 236.613 54.6953 237.02 54.6953C237.155 54.6953 237.267 54.7135 237.355 54.75L237.352 55.6406Z" fill="#27223A"/>
<g clip-path="url(#clip0)">
<path d="M283.448 61C283.753 61 284 60.7529 284 60.4481V51.5519C284 51.2471 283.753 51 283.448 51H274.552C274.247 51 274 51.2471 274 51.5519V60.4481C274 60.7529 274.247 61 274.552 61H283.448Z" fill="#27223A"/>
<path d="M280.9 61.0001V57.1276H282.2L282.394 55.6184H280.9V54.6548C280.9 54.2178 281.021 53.9201 281.648 53.9201L282.447 53.9197V52.5699C282.309 52.5515 281.834 52.5104 281.282 52.5104C280.13 52.5104 279.341 53.2137 279.341 54.5054V55.6184H278.038V57.1276H279.341V61.0001H280.9Z" fill="#E7EFD5"/>
</g>
<path d="M368.18 57C368.22 56.67 368.25 56.34 368.25 56C368.25 55.66 368.22 55.33 368.18 55H369.87C369.95 55.32 370 55.655 370 56C370 56.345 369.95 56.68 369.87 57H368.18ZM367.295 59.78C367.595 59.225 367.825 58.625 367.985 58H369.46C368.976 58.8341 368.207 59.466 367.295 59.78ZM367.17 57H364.83C364.78 56.67 364.75 56.34 364.75 56C364.75 55.66 364.78 55.325 364.83 55H367.17C367.215 55.325 367.25 55.66 367.25 56C367.25 56.34 367.215 56.67 367.17 57ZM366 59.98C365.585 59.38 365.25 58.715 365.045 58H366.955C366.75 58.715 366.415 59.38 366 59.98ZM364 54H362.54C363.019 53.1636 363.787 52.5307 364.7 52.22C364.4 52.775 364.175 53.375 364 54ZM362.54 58H364C364.175 58.625 364.4 59.225 364.7 59.78C363.789 59.4658 363.022 58.8339 362.54 58ZM362.13 57C362.05 56.68 362 56.345 362 56C362 55.655 362.05 55.32 362.13 55H363.82C363.78 55.33 363.75 55.66 363.75 56C363.75 56.34 363.78 56.67 363.82 57H362.13ZM366 52.015C366.415 52.615 366.75 53.285 366.955 54H365.045C365.25 53.285 365.585 52.615 366 52.015ZM369.46 54H367.985C367.829 53.3807 367.597 52.7829 367.295 52.22C368.215 52.535 368.98 53.17 369.46 54ZM366 51C363.235 51 361 53.25 361 56C361 57.3261 361.527 58.5979 362.464 59.5355C362.929 59.9998 363.48 60.3681 364.087 60.6194C364.693 60.8707 365.343 61 366 61C367.326 61 368.598 60.4732 369.536 59.5355C370.473 58.5979 371 57.3261 371 56C371 55.3434 370.871 54.6932 370.619 54.0866C370.368 53.48 370 52.9288 369.536 52.4645C369.071 52.0002 368.52 51.6319 367.913 51.3806C367.307 51.1293 366.657 51 366 51Z" fill="#27223A"/>
<path d="M43.75 54.5C43.75 54.0404 43.653 53.5852 43.4645 53.1606C43.2761 52.736 42.9999 52.3501 42.6516 52.0251C42.3034 51.7001 41.89 51.4423 41.4351 51.2664C40.9801 51.0905 40.4925 51 40 51C39.5075 51 39.0199 51.0905 38.5649 51.2664C38.11 51.4423 37.6966 51.7001 37.3483 52.0251C37.0001 52.3501 36.7239 52.736 36.5355 53.1606C36.347 53.5852 36.25 54.0404 36.25 54.5C36.25 55.1935 36.4696 55.8385 36.842 56.3825H36.8377C38.102 58.23 40 61 40 61L43.1623 56.3825H43.1586C43.5445 55.8207 43.7498 55.1674 43.75 54.5ZM40 56C39.5738 56 39.165 55.842 38.8636 55.5607C38.5622 55.2794 38.3929 54.8978 38.3929 54.5C38.3929 54.1022 38.5622 53.7206 38.8636 53.4393C39.165 53.158 39.5738 53 40 53C40.4262 53 40.835 53.158 41.1364 53.4393C41.4378 53.7206 41.6071 54.1022 41.6071 54.5C41.6071 54.8978 41.4378 55.2794 41.1364 55.5607C40.835 55.842 40.4262 56 40 56Z" fill="#27223A"/>
<path d="M501.851 54.0571C501.503 54.2112 501.13 54.3154 500.737 54.3625C501.142 54.1199 501.445 53.7381 501.59 53.2883C501.209 53.5146 500.792 53.6738 500.357 53.7592C500.065 53.447 499.678 53.2401 499.256 53.1706C498.834 53.1011 498.401 53.1728 498.024 53.3747C497.647 53.5765 497.347 53.8972 497.171 54.287C496.995 54.6767 496.952 55.1136 497.05 55.53C496.278 55.4912 495.523 55.2906 494.834 54.9412C494.145 54.5918 493.537 54.1013 493.049 53.5017C492.882 53.7892 492.787 54.1225 492.787 54.4775C492.786 54.7971 492.865 55.1118 493.016 55.3936C493.166 55.6755 493.384 55.9158 493.65 56.0933C493.342 56.0835 493.04 56.0002 492.771 55.8504V55.8754C492.771 56.3236 492.926 56.7581 493.21 57.105C493.493 57.4519 493.889 57.69 494.328 57.7787C494.042 57.8561 493.742 57.8675 493.451 57.8121C493.575 58.1978 493.817 58.535 494.142 58.7766C494.467 59.0183 494.86 59.1522 495.265 59.1596C494.577 59.6993 493.728 59.9921 492.854 59.9908C492.699 59.9909 492.544 59.9818 492.39 59.9637C493.278 60.5342 494.311 60.837 495.365 60.8358C498.936 60.8358 500.888 57.8783 500.888 55.3133C500.888 55.23 500.886 55.1458 500.882 55.0625C501.262 54.7879 501.59 54.4479 501.85 54.0583L501.851 54.0571Z" fill="#27223A"/>
<defs>
<clipPath id="clip0">
<rect width="10" height="10" fill="white" transform="translate(274 51)"/>
</clipPath>
</defs>
</svg>
